<svg width="192" height="47" viewBox="0 0 192 47" fill="none" xmlns="http://www.w3.org/2000/svg">
<path d="M17.7377 5.82823C18.2415 4.57693 18.9342 3.42495 19.9628 2.49145C24.0772 -1.30215 30.8785 -0.348788 33.6705 4.41804C35.7696 8.03288 37.9948 11.5683 40.1569 15.1434C43.7675 21.0821 47.4201 27.0207 50.9887 32.9793C53.9906 37.9646 50.7368 44.2608 44.7751 45.1148C41.1226 45.6312 37.7009 44.0423 35.8116 40.9438C32.6419 35.7202 29.4511 30.4966 26.2813 25.2928C26.2184 25.1736 26.1344 25.0743 26.0504 24.975C25.7146 24.7168 25.5676 24.3394 25.3577 24.0018C23.9512 21.6581 22.5028 19.3342 21.0963 17.0104C20.1937 15.5009 19.2491 14.0113 18.3464 12.5018C17.5277 11.1512 17.1499 9.68141 17.1919 8.13219C17.2548 7.33772 17.3598 6.54325 17.7377 5.82823Z" fill="#3C8BD9"/>
<path d="M17.7378 5.82812C17.5489 6.54315 17.3809 7.25817 17.339 8.01292C17.276 9.68131 17.7168 11.2305 18.5985 12.6804C20.9076 16.4343 23.2167 20.2081 25.5048 23.9818C25.7147 24.3195 25.8826 24.6571 26.0926 24.9749C24.833 27.0405 23.5735 29.0863 22.293 31.1519C20.5297 34.0319 18.7664 36.9317 16.9821 39.8117C16.8981 39.8117 16.8771 39.7719 16.8561 39.7124C16.8352 39.5535 16.8981 39.4144 16.9401 39.2555C17.8008 36.2763 17.0871 33.6347 14.9249 31.3704C13.6024 29.9999 11.9231 29.2253 9.99181 28.9671C7.47279 28.6295 5.24765 29.2452 3.25343 30.7348C2.89657 30.993 2.66566 31.3704 2.24582 31.569C2.16185 31.569 2.11987 31.5293 2.09888 31.4697C3.10649 29.8212 4.0931 28.1727 5.10071 26.5241C9.2571 19.6917 13.4135 12.8592 17.5909 6.0466C17.6328 5.96716 17.6958 5.90757 17.7378 5.82812Z" fill="#FABC04"/>
<path d="M2.18269 31.5284C2.58153 31.1907 2.95939 30.8332 3.37922 30.5154C8.48024 26.7019 16.1423 29.4627 17.2548 35.5007C17.5277 36.9506 17.3808 38.341 16.919 39.7313C16.898 39.8504 16.877 39.9498 16.835 40.0689C16.6461 40.3867 16.4781 40.7244 16.2682 41.0422C14.3999 43.9618 11.65 45.4117 8.03941 45.1933C3.90402 44.9152 0.650282 41.9757 0.0835026 38.0827C-0.189391 36.1959 0.209454 34.4282 1.23805 32.7995C1.44797 32.442 1.69987 32.1242 1.93079 31.7667C2.03574 31.6873 1.99376 31.5284 2.18269 31.5284Z" fill="#34A852"/>
<g clip-path="url(#clip0)">
<path d="M82.192 25.6138L75.219 41.2553H70.1321L77.7909 24.5289C74.1901 22.7021 71.7896 19.3911 71.7896 13.2829C71.7896 4.71997 77.2194 0.438477 83.678 0.438477H90.2508V41.2553H85.8499V25.6138H82.192ZM85.8499 4.14911H83.5065C79.9629 4.14911 76.5335 6.48961 76.5335 13.2829C76.5335 19.8477 79.6771 21.9599 83.5065 21.9599H85.8499V4.14911Z" fill="#FF0000"/>
<path d="M111.456 12.4835V41.2552H107.055V28.3536H100.425V41.2552H95.9666V12.4835H100.425V24.6999H107.055V12.4835H111.456ZM134.375 46.9068H130.374V41.2552H118.029V46.9068H114.028V37.6016H115.8C118.429 31.4934 118.714 22.5878 118.714 14.9382V12.4835H132.089V37.6016H134.375V46.9068ZM127.688 16.0801H122.715V16.5938C122.715 22.6449 122.43 31.4934 120.029 37.6016H127.688V16.0801ZM146.664 41.6546C140.719 41.6546 137.062 36.9166 137.062 28.0684C137.062 18.8202 139.634 12.084 145.749 12.084C150.55 12.084 153.694 15.6804 153.694 25.4423V27.897H141.691C141.691 34.4047 143.52 37.8301 147.064 37.8301C149.578 37.8301 151.579 36.6885 152.722 35.8891L153.751 39.3142C151.721 40.8706 149.223 41.6954 146.664 41.6546ZM141.748 24.2433H149.121C149.121 19.3339 148.321 15.7375 145.749 15.7375C143.006 15.7375 142.034 19.1056 141.748 24.2433ZM162.724 26.9267V41.2552H158.266V12.4835H162.724V25.7847L169.64 12.4835H174.155L167.011 26.0131L175.184 41.2552H170.326L162.724 26.9267ZM175.756 26.8696C175.756 17.8497 179.242 12.084 185.987 12.084C188.559 12.084 190.045 12.7691 191.302 13.5682L190.673 17.7926C189.473 16.7649 187.759 15.7946 185.93 15.7946C182.729 15.7946 180.443 19.391 180.443 26.6411C180.443 33.8339 182.157 37.944 185.758 37.944C187.54 37.9679 189.268 37.3383 190.616 36.1744L191.645 39.4855C189.991 40.94 187.847 41.715 185.644 41.6546C179.471 41.6546 175.756 36.6885 175.756 26.8696Z" fill="black"/>
</g>
<defs>
<clipPath id="clip0">
<rect width="122" height="47" fill="white" transform="translate(70)"/>
</clipPath>
</defs>
</svg>
