<svg width="172" height="188" viewBox="0 0 172 188" fill="none" xmlns="http://www.w3.org/2000/svg">
<path d="M6.5 6.5H165.5V134.081L86 180.474L6.5 134.081V6.5Z" fill="white" stroke="#348AD9" stroke-width="13"/>
<path d="M32.9302 37.7676C32.8247 38.6699 32.4907 39.3672 31.9282 39.8594C31.3696 40.3477 30.6255 40.5918 29.6958 40.5918C28.688 40.5918 27.8794 40.2305 27.27 39.5078C26.6645 38.7852 26.3618 37.8184 26.3618 36.6074V35.7871C26.3618 34.9941 26.5024 34.2969 26.7837 33.6953C27.0688 33.0938 27.4712 32.6328 27.9907 32.3125C28.5103 31.9883 29.1118 31.8262 29.7954 31.8262C30.7017 31.8262 31.4282 32.0801 31.9751 32.5879C32.522 33.0918 32.8403 33.791 32.9302 34.6855H31.7993C31.7017 34.0059 31.4888 33.5137 31.1606 33.209C30.8364 32.9043 30.3813 32.752 29.7954 32.752C29.0767 32.752 28.5122 33.0176 28.102 33.5488C27.6958 34.0801 27.4927 34.8359 27.4927 35.8164V36.6426C27.4927 37.5684 27.686 38.3047 28.0728 38.8516C28.4595 39.3984 29.0005 39.6719 29.6958 39.6719C30.3208 39.6719 30.7993 39.5312 31.1313 39.25C31.4673 38.9648 31.6899 38.4707 31.7993 37.7676H32.9302ZM36.9321 40.5918C36.0728 40.5918 35.3735 40.3105 34.8345 39.748C34.2954 39.1816 34.0259 38.4258 34.0259 37.4805V37.2812C34.0259 36.6523 34.145 36.0918 34.3833 35.5996C34.6255 35.1035 34.9614 34.7168 35.3911 34.4395C35.8247 34.1582 36.2935 34.0176 36.7974 34.0176C37.6216 34.0176 38.2622 34.2891 38.7192 34.832C39.1763 35.375 39.4048 36.1523 39.4048 37.1641V37.6152H35.1099C35.1255 38.2402 35.3071 38.7461 35.6548 39.1328C36.0063 39.5156 36.4517 39.707 36.9907 39.707C37.3735 39.707 37.6978 39.6289 37.9634 39.4727C38.229 39.3164 38.4614 39.1094 38.6606 38.8516L39.3228 39.3672C38.7915 40.1836 37.9946 40.5918 36.9321 40.5918ZM36.7974 34.9082C36.3599 34.9082 35.9927 35.0684 35.6958 35.3887C35.3989 35.7051 35.2153 36.1504 35.145 36.7246H38.3208V36.6426C38.2895 36.0918 38.1411 35.666 37.8755 35.3652C37.6099 35.0605 37.2505 34.9082 36.7974 34.9082ZM46.02 37.375C46.02 38.3398 45.7993 39.1172 45.3579 39.707C44.9165 40.2969 44.3188 40.5918 43.5649 40.5918C42.7954 40.5918 42.1899 40.3477 41.7485 39.8594V42.9121H40.6645V34.1348H41.6548L41.7075 34.8379C42.1489 34.291 42.7622 34.0176 43.5474 34.0176C44.3091 34.0176 44.9106 34.3047 45.352 34.8789C45.7974 35.4531 46.02 36.252 46.02 37.2754V37.375ZM44.936 37.252C44.936 36.5371 44.7837 35.9727 44.479 35.5586C44.1743 35.1445 43.7563 34.9375 43.2251 34.9375C42.5688 34.9375 42.0767 35.2285 41.7485 35.8105V38.8398C42.0728 39.418 42.5688 39.707 43.2368 39.707C43.7563 39.707 44.1685 39.502 44.4731 39.0918C44.7817 38.6777 44.936 38.0645 44.936 37.252ZM51.645 35.0137H49.5181V40.4746H48.4341V35.0137H46.3481V34.1348H51.645V35.0137ZM56.8013 34.1348H57.8853V40.4746H56.8013V35.8516L53.8774 40.4746H52.7935V34.1348H53.8774V38.7637L56.8013 34.1348ZM59.3911 37.4219C59.3911 36.3633 59.5962 35.5312 60.0063 34.9258C60.4165 34.3203 60.979 34.0176 61.6938 34.0176C62.0259 34.0176 62.3169 34.0742 62.5669 34.1875V31.4746H63.6509V34.2227C63.9243 34.0859 64.2446 34.0176 64.6118 34.0176C65.3306 34.0176 65.895 34.3203 66.3052 34.9258C66.7153 35.5312 66.9204 36.4043 66.9204 37.5449C66.9204 38.4785 66.7153 39.2207 66.3052 39.7715C65.8989 40.3223 65.3384 40.5977 64.6235 40.5977C64.2446 40.5977 63.9204 40.5352 63.6509 40.4102V42.9121H62.5669V40.4277C62.3091 40.541 62.0142 40.5977 61.6821 40.5977C60.9712 40.5977 60.4106 40.3223 60.0005 39.7715C59.5942 39.2207 59.3911 38.4668 59.3911 37.5098V37.4219ZM65.8364 37.4219C65.8364 36.625 65.6997 36.0078 65.4263 35.5703C65.1528 35.1289 64.7759 34.9082 64.2954 34.9082C64.0493 34.9082 63.8345 34.9473 63.6509 35.0254V39.6133C63.8267 39.6797 64.0454 39.7129 64.3071 39.7129C64.7915 39.7129 65.1665 39.5254 65.4321 39.1504C65.7017 38.7754 65.8364 38.1992 65.8364 37.4219ZM60.4751 37.5449C60.4751 38.2559 60.602 38.7949 60.856 39.1621C61.1099 39.5293 61.4751 39.7129 61.9517 39.7129C62.1782 39.7129 62.3833 39.6777 62.5669 39.6074V35.0078C62.4028 34.9414 62.2017 34.9082 61.9634 34.9082C61.4868 34.9082 61.1196 35.1211 60.8618 35.5469C60.604 35.9727 60.4751 36.6387 60.4751 37.5449ZM72.4341 34.1348H73.5181V40.4746H72.4341V35.8516L69.5103 40.4746H68.4263V34.1348H69.5103V38.7637L72.4341 34.1348ZM75.352 34.1348H76.4419V39.5898H79.3599V34.1348H80.4438V39.5898H81.1997L81.0942 42.3555H80.1216V40.4746H75.352V34.1348ZM86.4731 34.1348H87.5571V40.4746H86.4731V35.8516L83.5493 40.4746H82.4653V34.1348H83.5493V38.7637L86.4731 34.1348ZM94.6528 37.375C94.6528 38.3398 94.4321 39.1172 93.9907 39.707C93.5493 40.2969 92.9517 40.5918 92.1978 40.5918C91.4282 40.5918 90.8228 40.3477 90.3813 39.8594V42.9121H89.2974V34.1348H90.2876L90.3403 34.8379C90.7817 34.291 91.395 34.0176 92.1802 34.0176C92.9419 34.0176 93.5435 34.3047 93.9849 34.8789C94.4302 35.4531 94.6528 36.252 94.6528 37.2754V37.375ZM93.5688 37.252C93.5688 36.5371 93.4165 35.9727 93.1118 35.5586C92.8071 35.1445 92.3892 34.9375 91.8579 34.9375C91.2017 34.9375 90.7095 35.2285 90.3813 35.8105V38.8398C90.7056 39.418 91.2017 39.707 91.8696 39.707C92.3892 39.707 92.8013 39.502 93.106 39.0918C93.4146 38.6777 93.5688 38.0645 93.5688 37.252ZM95.7485 37.2461C95.7485 36.625 95.8696 36.0664 96.1118 35.5703C96.3579 35.0742 96.6978 34.6914 97.1313 34.4219C97.5688 34.1523 98.0669 34.0176 98.6255 34.0176C99.4888 34.0176 100.186 34.3164 100.717 34.9141C101.252 35.5117 101.52 36.3066 101.52 37.2988V37.375C101.52 37.9922 101.401 38.5469 101.163 39.0391C100.928 39.5273 100.59 39.9082 100.149 40.1816C99.7114 40.4551 99.2075 40.5918 98.6372 40.5918C97.7778 40.5918 97.0806 40.293 96.5454 39.6953C96.0142 39.0977 95.7485 38.3066 95.7485 37.3223V37.2461ZM96.8384 37.375C96.8384 38.0781 97.0005 38.6426 97.3247 39.0684C97.6528 39.4941 98.0903 39.707 98.6372 39.707C99.188 39.707 99.6255 39.4922 99.9497 39.0625C100.274 38.6289 100.436 38.0234 100.436 37.2461C100.436 36.5508 100.27 35.9883 99.938 35.5586C99.6099 35.125 99.1724 34.9082 98.6255 34.9082C98.0903 34.9082 97.6587 35.1211 97.3306 35.5469C97.0024 35.9727 96.8384 36.582 96.8384 37.375ZM102.979 40.4746V34.1348H105.452C106.295 34.1348 106.942 34.2832 107.391 34.5801C107.844 34.873 108.071 35.3047 108.071 35.875C108.071 36.168 107.983 36.4336 107.807 36.6719C107.631 36.9062 107.372 37.0859 107.028 37.2109C107.411 37.3008 107.717 37.4766 107.948 37.7383C108.182 38 108.299 38.3125 108.299 38.6758C108.299 39.2578 108.084 39.7031 107.655 40.0117C107.229 40.3203 106.625 40.4746 105.844 40.4746H102.979ZM104.063 37.6914V39.6016H105.856C106.309 39.6016 106.647 39.5176 106.87 39.3496C107.096 39.1816 107.209 38.9453 107.209 38.6406C107.209 38.0078 106.745 37.6914 105.815 37.6914H104.063ZM104.063 36.8242H105.463C106.479 36.8242 106.987 36.5273 106.987 35.9336C106.987 35.3398 106.506 35.0332 105.545 35.0137H104.063V36.8242ZM113.649 40.4746C113.586 40.3496 113.536 40.127 113.497 39.8066C112.993 40.3301 112.391 40.5918 111.692 40.5918C111.067 40.5918 110.553 40.416 110.151 40.0645C109.752 39.709 109.553 39.2598 109.553 38.7168C109.553 38.0566 109.803 37.5449 110.303 37.1816C110.807 36.8145 111.514 36.6309 112.424 36.6309H113.479V36.1328C113.479 35.7539 113.366 35.4531 113.139 35.2305C112.913 35.0039 112.579 34.8906 112.137 34.8906C111.75 34.8906 111.426 34.9883 111.165 35.1836C110.903 35.3789 110.772 35.6152 110.772 35.8926H109.682C109.682 35.5762 109.793 35.2715 110.016 34.9785C110.243 34.6816 110.547 34.4473 110.93 34.2754C111.317 34.1035 111.741 34.0176 112.202 34.0176C112.932 34.0176 113.504 34.2012 113.918 34.5684C114.333 34.9316 114.547 35.4336 114.563 36.0742V38.9922C114.563 39.5742 114.637 40.0371 114.786 40.3809V40.4746H113.649ZM111.85 39.6484C112.19 39.6484 112.512 39.5605 112.817 39.3848C113.122 39.209 113.342 38.9805 113.479 38.6992V37.3984H112.629C111.301 37.3984 110.637 37.7871 110.637 38.5645C110.637 38.9043 110.75 39.1699 110.977 39.3613C111.204 39.5527 111.495 39.6484 111.85 39.6484ZM121.442 40.4746H120.358V37.7676H117.446V40.4746H116.356V34.1348H117.446V36.8828H120.358V34.1348H121.442V40.4746ZM128.368 40.4746H127.284V37.7676H124.372V40.4746H123.282V34.1348H124.372V36.8828H127.284V34.1348H128.368V40.4746ZM131.297 36.3203H132.944C133.663 36.3281 134.231 36.5156 134.649 36.8828C135.067 37.25 135.276 37.748 135.276 38.377C135.276 39.0098 135.061 39.5176 134.631 39.9004C134.202 40.2832 133.624 40.4746 132.897 40.4746H130.213V34.1348H131.297V36.3203ZM137.538 40.4746H136.448V34.1348H137.538V40.4746ZM131.297 37.2051V39.5898H132.909C133.315 39.5898 133.629 39.4863 133.852 39.2793C134.075 39.0684 134.186 38.7812 134.186 38.418C134.186 38.0664 134.077 37.7793 133.858 37.5566C133.643 37.3301 133.34 37.2129 132.95 37.2051H131.297ZM143.532 34.1348H144.616V40.4746H143.532V35.8516L140.608 40.4746H139.524V34.1348H140.608V38.7637L143.532 34.1348ZM143.825 31.8262C143.825 32.2988 143.663 32.6797 143.338 32.9688C143.018 33.2539 142.596 33.3965 142.073 33.3965C141.549 33.3965 141.125 33.252 140.801 32.9629C140.477 32.6738 140.315 32.2949 140.315 31.8262H141.2C141.2 32.0996 141.274 32.3145 141.422 32.4707C141.571 32.623 141.788 32.6992 142.073 32.6992C142.346 32.6992 142.559 32.623 142.711 32.4707C142.868 32.3184 142.946 32.1035 142.946 31.8262H143.825ZM68.8481 56.4746H67.7642V51.0312H64.8462V56.4746H63.7563V50.1348H68.8481V56.4746ZM74.5024 56.4746C74.4399 56.3496 74.3892 56.127 74.3501 55.8066C73.8462 56.3301 73.2446 56.5918 72.5454 56.5918C71.9204 56.5918 71.4067 56.416 71.0044 56.0645C70.606 55.709 70.4067 55.2598 70.4067 54.7168C70.4067 54.0566 70.6567 53.5449 71.1567 53.1816C71.6606 52.8145 72.3677 52.6309 73.2778 52.6309H74.3325V52.1328C74.3325 51.7539 74.2192 51.4531 73.9927 51.2305C73.7661 51.0039 73.4321 50.8906 72.9907 50.8906C72.604 50.8906 72.2798 50.9883 72.0181 51.1836C71.7563 51.3789 71.6255 51.6152 71.6255 51.8926H70.5356C70.5356 51.5762 70.647 51.2715 70.8696 50.9785C71.0962 50.6816 71.4009 50.4473 71.7837 50.2754C72.1704 50.1035 72.5942 50.0176 73.0552 50.0176C73.7856 50.0176 74.3579 50.2012 74.772 50.5684C75.186 50.9316 75.4009 51.4336 75.4165 52.0742V54.9922C75.4165 55.5742 75.4907 56.0371 75.6392 56.3809V56.4746H74.5024ZM72.7036 55.6484C73.0435 55.6484 73.3657 55.5605 73.6704 55.3848C73.9751 55.209 74.1958 54.9805 74.3325 54.6992V53.3984H73.4829C72.1548 53.3984 71.4907 53.7871 71.4907 54.5645C71.4907 54.9043 71.604 55.1699 71.8306 55.3613C72.0571 55.5527 72.3481 55.6484 72.7036 55.6484ZM82.4712 53.375C82.4712 54.3398 82.2505 55.1172 81.8091 55.707C81.3677 56.2969 80.77 56.5918 80.0161 56.5918C79.2466 56.5918 78.6411 56.3477 78.1997 55.8594V58.9121H77.1157V50.1348H78.106L78.1587 50.8379C78.6001 50.291 79.2134 50.0176 79.9985 50.0176C80.7603 50.0176 81.3618 50.3047 81.8032 50.8789C82.2485 51.4531 82.4712 52.252 82.4712 53.2754V53.375ZM81.3872 53.252C81.3872 52.5371 81.2349 51.9727 80.9302 51.5586C80.6255 51.1445 80.2075 50.9375 79.6763 50.9375C79.02 50.9375 78.5278 51.2285 78.1997 51.8105V54.8398C78.5239 55.418 79.02 55.707 79.688 55.707C80.2075 55.707 80.6196 55.502 80.9243 55.0918C81.2329 54.6777 81.3872 54.0645 81.3872 53.252ZM88.0962 51.0137H85.9692V56.4746H84.8853V51.0137H82.7993V50.1348H88.0962V51.0137ZM94.3306 56.4746H93.2466V53.7676H90.3345V56.4746H89.2446V50.1348H90.3345V52.8828H93.2466V50.1348H94.3306V56.4746ZM98.7075 56.5918C97.8481 56.5918 97.1489 56.3105 96.6099 55.748C96.0708 55.1816 95.8013 54.4258 95.8013 53.4805V53.2812C95.8013 52.6523 95.9204 52.0918 96.1587 51.5996C96.4009 51.1035 96.7368 50.7168 97.1665 50.4395C97.6001 50.1582 98.0688 50.0176 98.5728 50.0176C99.397 50.0176 100.038 50.2891 100.495 50.832C100.952 51.375 101.18 52.1523 101.18 53.1641V53.6152H96.8853C96.9009 54.2402 97.0825 54.7461 97.4302 55.1328C97.7817 55.5156 98.2271 55.707 98.7661 55.707C99.1489 55.707 99.4731 55.6289 99.7388 55.4727C100.004 55.3164 100.237 55.1094 100.436 54.8516L101.098 55.3672C100.567 56.1836 99.77 56.5918 98.7075 56.5918ZM98.5728 50.9082C98.1353 50.9082 97.7681 51.0684 97.4712 51.3887C97.1743 51.7051 96.9907 52.1504 96.9204 52.7246H100.096V52.6426C100.065 52.0918 99.9165 51.666 99.6509 51.3652C99.3853 51.0605 99.0259 50.9082 98.5728 50.9082ZM96.6802 48.4414C96.6802 48.2656 96.7329 48.1191 96.8384 48.002C96.9478 47.8809 97.1079 47.8203 97.3188 47.8203C97.5298 47.8203 97.6899 47.8809 97.7993 48.002C97.9087 48.1191 97.9634 48.2656 97.9634 48.4414C97.9634 48.6172 97.9087 48.7637 97.7993 48.8809C97.6899 48.998 97.5298 49.0566 97.3188 49.0566C97.1079 49.0566 96.9478 48.998 96.8384 48.8809C96.7329 48.7637 96.6802 48.6172 96.6802 48.4414ZM99.1997 48.4531C99.1997 48.2773 99.2524 48.1289 99.3579 48.0078C99.4673 47.8867 99.6274 47.8262 99.8384 47.8262C100.049 47.8262 100.209 47.8867 100.319 48.0078C100.428 48.1289 100.483 48.2773 100.483 48.4531C100.483 48.6289 100.428 48.7754 100.319 48.8926C100.209 49.0098 100.049 49.0684 99.8384 49.0684C99.6274 49.0684 99.4673 49.0098 99.3579 48.8926C99.2524 48.7754 99.1997 48.6289 99.1997 48.4531ZM107.795 53.375C107.795 54.3398 107.575 55.1172 107.133 55.707C106.692 56.2969 106.094 56.5918 105.34 56.5918C104.571 56.5918 103.965 56.3477 103.524 55.8594V58.9121H102.44V50.1348H103.43L103.483 50.8379C103.924 50.291 104.538 50.0176 105.323 50.0176C106.084 50.0176 106.686 50.3047 107.127 50.8789C107.573 51.4531 107.795 52.252 107.795 53.2754V53.375ZM106.711 53.252C106.711 52.5371 106.559 51.9727 106.254 51.5586C105.95 51.1445 105.532 50.9375 105 50.9375C104.344 50.9375 103.852 51.2285 103.524 51.8105V54.8398C103.848 55.418 104.344 55.707 105.012 55.707C105.532 55.707 105.944 55.502 106.249 55.0918C106.557 54.6777 106.711 54.0645 106.711 53.252Z" fill="#505565"/>
<path d="M60.9453 127.031H56.1797L55.1094 130H53.5625L57.9062 118.625H59.2188L63.5703 130H62.0312L60.9453 127.031ZM56.6328 125.797H60.5L58.5625 120.477L56.6328 125.797ZM69.7969 127.758C69.7969 127.367 69.6484 127.065 69.3516 126.852C69.0599 126.633 68.5469 126.445 67.8125 126.289C67.0833 126.133 66.5026 125.945 66.0703 125.727C65.6432 125.508 65.3255 125.247 65.1172 124.945C64.9141 124.643 64.8125 124.284 64.8125 123.867C64.8125 123.174 65.1042 122.589 65.6875 122.109C66.276 121.63 67.026 121.391 67.9375 121.391C68.8958 121.391 69.6719 121.638 70.2656 122.133C70.8646 122.628 71.1641 123.26 71.1641 124.031H69.7109C69.7109 123.635 69.5417 123.294 69.2031 123.008C68.8698 122.721 68.4479 122.578 67.9375 122.578C67.4115 122.578 67 122.693 66.7031 122.922C66.4062 123.151 66.2578 123.451 66.2578 123.82C66.2578 124.169 66.3958 124.432 66.6719 124.609C66.9479 124.786 67.4453 124.956 68.1641 125.117C68.888 125.279 69.474 125.471 69.9219 125.695C70.3698 125.919 70.7005 126.19 70.9141 126.508C71.1328 126.82 71.2422 127.203 71.2422 127.656C71.2422 128.411 70.9401 129.018 70.3359 129.477C69.7318 129.93 68.9479 130.156 67.9844 130.156C67.3073 130.156 66.7083 130.036 66.1875 129.797C65.6667 129.557 65.2578 129.224 64.9609 128.797C64.6693 128.365 64.5234 127.898 64.5234 127.398H65.9688C65.9948 127.883 66.1875 128.268 66.5469 128.555C66.9115 128.836 67.3906 128.977 67.9844 128.977C68.5312 128.977 68.9688 128.867 69.2969 128.648C69.6302 128.424 69.7969 128.128 69.7969 127.758ZM75.8047 126.414L76.0234 127.914L76.3438 126.562L78.5938 118.625H79.8594L82.0547 126.562L82.3672 127.938L82.6094 126.406L84.375 118.625H85.8828L83.125 130H81.7578L79.4141 121.711L79.2344 120.844L79.0547 121.711L76.625 130H75.2578L72.5078 118.625H74.0078L75.8047 126.414ZM86.6953 125.695C86.6953 124.867 86.8568 124.122 87.1797 123.461C87.5078 122.799 87.9609 122.289 88.5391 121.93C89.1224 121.57 89.7865 121.391 90.5312 121.391C91.6823 121.391 92.612 121.789 93.3203 122.586C94.0339 123.383 94.3906 124.443 94.3906 125.766V125.867C94.3906 126.69 94.2318 127.43 93.9141 128.086C93.6016 128.737 93.151 129.245 92.5625 129.609C91.9792 129.974 91.3073 130.156 90.5469 130.156C89.401 130.156 88.4714 129.758 87.7578 128.961C87.0495 128.164 86.6953 127.109 86.6953 125.797V125.695ZM88.1484 125.867C88.1484 126.805 88.3646 127.557 88.7969 128.125C89.2344 128.693 89.8177 128.977 90.5469 128.977C91.2812 128.977 91.8646 128.69 92.2969 128.117C92.7292 127.539 92.9453 126.732 92.9453 125.695C92.9453 124.768 92.724 124.018 92.2812 123.445C91.8438 122.867 91.2604 122.578 90.5312 122.578C89.8177 122.578 89.2422 122.862 88.8047 123.43C88.3672 123.997 88.1484 124.81 88.1484 125.867ZM100.289 122.844C100.07 122.807 99.8333 122.789 99.5781 122.789C98.6302 122.789 97.987 123.193 97.6484 124V130H96.2031V121.547H97.6094L97.6328 122.523C98.1068 121.768 98.7786 121.391 99.6484 121.391C99.9297 121.391 100.143 121.427 100.289 121.5V122.844ZM101.117 125.703C101.117 124.406 101.424 123.365 102.039 122.578C102.654 121.786 103.458 121.391 104.453 121.391C105.443 121.391 106.227 121.729 106.805 122.406V118H108.25V130H106.922L106.852 129.094C106.273 129.802 105.469 130.156 104.438 130.156C103.458 130.156 102.659 129.755 102.039 128.953C101.424 128.151 101.117 127.104 101.117 125.812V125.703ZM102.562 125.867C102.562 126.826 102.76 127.576 103.156 128.117C103.552 128.659 104.099 128.93 104.797 128.93C105.714 128.93 106.383 128.518 106.805 127.695V123.812C106.372 123.016 105.708 122.617 104.812 122.617C104.104 122.617 103.552 122.891 103.156 123.438C102.76 123.984 102.562 124.794 102.562 125.867ZM115.422 127.758C115.422 127.367 115.273 127.065 114.977 126.852C114.685 126.633 114.172 126.445 113.438 126.289C112.708 126.133 112.128 125.945 111.695 125.727C111.268 125.508 110.951 125.247 110.742 124.945C110.539 124.643 110.438 124.284 110.438 123.867C110.438 123.174 110.729 122.589 111.312 122.109C111.901 121.63 112.651 121.391 113.562 121.391C114.521 121.391 115.297 121.638 115.891 122.133C116.49 122.628 116.789 123.26 116.789 124.031H115.336C115.336 123.635 115.167 123.294 114.828 123.008C114.495 122.721 114.073 122.578 113.562 122.578C113.036 122.578 112.625 122.693 112.328 122.922C112.031 123.151 111.883 123.451 111.883 123.82C111.883 124.169 112.021 124.432 112.297 124.609C112.573 124.786 113.07 124.956 113.789 125.117C114.513 125.279 115.099 125.471 115.547 125.695C115.995 125.919 116.326 126.19 116.539 126.508C116.758 126.82 116.867 127.203 116.867 127.656C116.867 128.411 116.565 129.018 115.961 129.477C115.357 129.93 114.573 130.156 113.609 130.156C112.932 130.156 112.333 130.036 111.812 129.797C111.292 129.557 110.883 129.224 110.586 128.797C110.294 128.365 110.148 127.898 110.148 127.398H111.594C111.62 127.883 111.812 128.268 112.172 128.555C112.536 128.836 113.016 128.977 113.609 128.977C114.156 128.977 114.594 128.867 114.922 128.648C115.255 128.424 115.422 128.128 115.422 127.758Z" fill="#4285F4"/>
<path d="M75.626 152H69.1045V151.091L72.5498 147.263C73.0602 146.684 73.4111 146.215 73.6025 145.854C73.7985 145.49 73.8965 145.114 73.8965 144.727C73.8965 144.207 73.7393 143.781 73.4248 143.448C73.1104 143.116 72.6911 142.949 72.167 142.949C71.5381 142.949 71.0482 143.129 70.6973 143.489C70.3509 143.845 70.1777 144.341 70.1777 144.979H68.9131C68.9131 144.063 69.207 143.323 69.7949 142.758C70.3874 142.193 71.1781 141.91 72.167 141.91C73.0921 141.91 73.8236 142.154 74.3613 142.642C74.8991 143.125 75.168 143.77 75.168 144.576C75.168 145.556 74.5436 146.723 73.2949 148.076L70.6289 150.968H75.626V152ZM83.207 147.755C83.207 149.236 82.9541 150.337 82.4482 151.057C81.9424 151.777 81.1517 152.137 80.0762 152.137C79.0143 152.137 78.2282 151.786 77.7178 151.084C77.2074 150.378 76.943 149.325 76.9248 147.926V146.237C76.9248 144.774 77.1777 143.688 77.6836 142.977C78.1895 142.266 78.9824 141.91 80.0625 141.91C81.1335 141.91 81.9219 142.254 82.4277 142.942C82.9336 143.626 83.1934 144.683 83.207 146.114V147.755ZM81.9424 146.025C81.9424 144.954 81.792 144.175 81.4912 143.688C81.1904 143.195 80.7142 142.949 80.0625 142.949C79.4154 142.949 78.9437 143.193 78.6475 143.681C78.3512 144.168 78.1986 144.918 78.1895 145.93V147.953C78.1895 149.029 78.3444 149.824 78.6543 150.339C78.9688 150.849 79.4427 151.104 80.0762 151.104C80.7005 151.104 81.1631 150.863 81.4639 150.38C81.7692 149.897 81.9287 149.136 81.9424 148.097V146.025ZM88.9834 152H87.7119V143.571L85.1621 144.508V143.359L88.7852 141.999H88.9834V152ZM97.5352 147.625C97.2708 147.939 96.9541 148.192 96.585 148.384C96.2204 148.575 95.8193 148.671 95.3818 148.671C94.8076 148.671 94.3063 148.53 93.8779 148.247C93.4541 147.965 93.126 147.568 92.8936 147.058C92.6611 146.543 92.5449 145.975 92.5449 145.355C92.5449 144.69 92.6702 144.091 92.9209 143.558C93.1761 143.024 93.5361 142.617 94.001 142.334C94.4658 142.051 95.0081 141.91 95.6279 141.91C96.6123 141.91 97.387 142.279 97.9521 143.018C98.5218 143.751 98.8066 144.754 98.8066 146.025V146.395C98.8066 148.331 98.4238 149.746 97.6582 150.64C96.8926 151.528 95.7373 151.984 94.1924 152.007H93.9463V150.94H94.2129C95.2565 150.922 96.0586 150.651 96.6191 150.127C97.1797 149.598 97.485 148.764 97.5352 147.625ZM95.5869 147.625C96.0107 147.625 96.4004 147.495 96.7559 147.235C97.1159 146.976 97.3779 146.654 97.542 146.271V145.766C97.542 144.936 97.362 144.262 97.002 143.742C96.6419 143.223 96.1862 142.963 95.6348 142.963C95.0788 142.963 94.6322 143.177 94.2949 143.605C93.9577 144.029 93.7891 144.59 93.7891 145.287C93.7891 145.966 93.9508 146.527 94.2744 146.969C94.6025 147.406 95.04 147.625 95.5869 147.625Z" fill="#080B1A"/>
<path d="M39.3611 88.3485C39.3611 81.8089 44.8792 76.4863 51.4466 76.4863C55.0759 76.4863 57.6683 77.9 59.6064 79.7561L57.3103 82.0425C55.9153 80.7395 54.0266 79.7315 51.4466 79.7315C46.6568 79.7315 42.904 83.579 42.904 88.3485C42.904 93.1179 46.6568 96.9655 51.4466 96.9655C54.5574 96.9655 56.3227 95.7239 57.4584 94.593C58.3843 93.6711 59.0015 92.3312 59.2361 90.512H51.4466V87.2791H62.3963C62.5074 87.8568 62.5691 88.5575 62.5691 89.3073C62.5691 91.7412 61.9025 94.7405 59.7545 96.8794C57.6683 99.0429 54.9895 100.211 51.4466 100.211C44.8792 100.211 39.3611 94.8881 39.3611 88.3485Z" fill="#4285F4"/>
<path d="M71.4206 84.9434C67.174 84.9434 63.7175 88.1517 63.7175 92.5769C63.7175 96.9776 67.174 100.211 71.4206 100.211C75.6672 100.211 79.1237 96.9653 79.1237 92.5769C79.1237 88.1517 75.6672 84.9434 71.4206 84.9434ZM71.4206 97.1989C69.0998 97.1989 67.0876 95.2936 67.0876 92.5769C67.0876 89.8234 69.0875 87.955 71.4206 87.955C73.7414 87.955 75.7536 89.8357 75.7536 92.5769C75.7536 95.2936 73.7538 97.1989 71.4206 97.1989Z" fill="#EA4335"/>
<path d="M88.2219 84.9434C83.9753 84.9434 80.5188 88.1517 80.5188 92.5769C80.5188 96.9776 83.9753 100.211 88.2219 100.211C92.4685 100.211 95.925 96.9653 95.925 92.5769C95.9126 88.1517 92.4561 84.9434 88.2219 84.9434ZM88.2219 97.1989C85.9011 97.1989 83.8889 95.2936 83.8889 92.5769C83.8889 89.8234 85.8887 87.955 88.2219 87.955C90.555 87.955 92.5549 89.8357 92.5549 92.5769C92.5425 95.2936 90.5427 97.1989 88.2219 97.1989Z" fill="#FBBC05"/>
<path d="M108.823 85.3988V86.6403H108.712C107.959 85.7429 106.502 84.9316 104.675 84.9316C100.836 84.9316 97.3301 88.2875 97.3301 92.6021C97.3301 96.8799 100.848 100.211 104.675 100.211C106.502 100.211 107.959 99.3998 108.712 98.4779H108.823V99.5719C108.823 102.497 107.255 104.059 104.725 104.059C102.663 104.059 101.379 102.584 100.861 101.342L97.9226 102.559C98.7621 104.587 100.996 107.07 104.725 107.07C108.675 107.07 112.02 104.759 112.02 99.1171V85.3988H108.823ZM104.959 97.1995C102.638 97.1995 100.688 95.2573 100.688 92.6021C100.688 89.9101 102.638 87.9433 104.959 87.9433C107.255 87.9433 109.058 89.9101 109.058 92.6021C109.058 95.2696 107.255 97.1995 104.959 97.1995Z" fill="#4285F4"/>
<path d="M114.342 77.2979H117.712V99.7438H114.342V77.2979Z" fill="#34A853"/>
<path d="M126.958 97.1989C125.242 97.1989 124.02 96.4122 123.242 94.8879L133.501 90.6593L133.155 89.7866C132.501 88.0902 130.551 84.9434 126.576 84.9434C122.625 84.9434 119.342 88.041 119.342 92.5769C119.342 96.8547 122.601 100.211 126.946 100.211C130.464 100.211 132.489 98.0716 133.34 96.8301L130.723 95.0969C129.859 96.363 128.662 97.1989 126.958 97.1989ZM126.687 87.8935C128.02 87.8935 129.156 88.5573 129.538 89.5161L122.687 92.3557C122.601 89.3932 124.983 87.8935 126.687 87.8935Z" fill="#EA4335"/>
</svg>
