<svg width="202" height="62" viewBox="0 0 202 62" fill="none" xmlns="http://www.w3.org/2000/svg">
<path d="M37.1292 22.067C41.1181 22.067 44.121 20.5373 46.3351 17.8742L43.3759 15.7958C42.6449 16.6826 41.7002 17.401 40.6162 17.8944C39.5322 18.3878 38.3385 18.6427 37.1292 18.6391C32.8002 18.6391 29.6634 15.3926 29.6634 11.409C29.6634 7.42545 32.7491 3.99615 37.2527 3.99615C39.2546 3.99615 40.6695 4.43121 41.9038 5.13509V8.63785H45.6277V3.53059L44.9142 3.01374C42.8671 1.53116 39.7408 0.744141 37.1277 0.744141C30.7396 0.744141 25.5436 5.52722 25.5436 11.4077C25.5436 17.2826 30.7366 22.067 37.1277 22.067H37.1292ZM99.6324 18.7339L99.4999 13.8247V1.84489H91.733V5.27424H95.5773V13.4021C95.5773 16.9035 92.6723 19.3823 89.7416 19.3823C86.811 19.3823 85.2816 17.5118 85.2816 14.0118V1.84349H78.0265V5.27284H81.359V14.6062C81.359 19.356 84.2521 22.6288 89.412 22.6288C92.3773 22.6288 94.6351 21.1143 95.9822 18.7796H96.0425L96.5738 22.0441H102.542V18.738H99.6369V18.7311L99.6324 18.7339ZM24.6856 1.24712H18.2132L12.5836 16.2946H12.4963L6.89691 1.24712H0V4.67782H3.87895L10.5546 21.8287H14.1009V21.8245L21.0625 4.67922H24.6826V1.24852L24.6856 1.24712ZM48.7199 22.0884H52.5552V18.5593H48.7214V22.0884H48.7199ZM63.5312 5.82153H63.4891L63.2482 1.84489H56.4025V4.9708H60.0451V18.7353H56.4025V22.0427H73.3212V18.8004H63.9015V10.4938C64.3275 7.48702 66.7765 4.91951 70.1181 4.91951H70.1783L70.1105 7.99278H73.8344V1.78806H70.8902C67.5186 1.77975 65.0169 3.45911 63.5297 5.82293L63.5312 5.82153Z" fill="black"/>
<g clip-path="url(#clip0)">
<path fill-rule="evenodd" clip-rule="evenodd" d="M116.42 0.320312V21.9081L137.72 0.320312H116.42Z" fill="#92CFAE"/>
<path fill-rule="evenodd" clip-rule="evenodd" d="M117.941 23.4501H139.241V1.8623L117.941 23.4501Z" fill="#2A8288"/>
<path fill-rule="evenodd" clip-rule="evenodd" d="M151.206 11.3838C153.682 11.3838 154.999 10.1546 154.999 7.85796V7.7282C154.999 5.26981 153.62 4.2994 151.206 4.2994H148.635V11.3838H151.206ZM143.588 0.320312H151.331C156.786 0.320312 159.889 2.81105 159.889 7.69623V7.82525C159.889 12.7101 156.598 15.0394 151.488 15.0394H148.635V23.4501H143.588V0.320312Z" fill="black"/>
<path fill-rule="evenodd" clip-rule="evenodd" d="M169.936 19.471C172.366 19.471 173.597 18.3712 173.597 16.2682V16.1392C173.597 14.0686 172.366 12.9365 169.813 12.9365H166.984V19.471H169.936ZM170.121 23.4501H162.063V0.320312H176.395V4.39644H167.015L166.984 9.24853H170.275C175.35 9.24853 178.364 11.5456 178.364 16.1712V16.301C178.364 20.8296 175.565 23.4501 170.121 23.4501Z" fill="black"/>
<path fill-rule="evenodd" clip-rule="evenodd" d="M182.031 0.352615H187.331V10.3024L195.508 0.320312H201.135L191.877 11.2715L201.593 23.4501H195.41L187.331 13.0804V23.4501H182.031V0.352615Z" fill="black"/>
</g>
<g clip-path="url(#clip1)">
<path fill-rule="evenodd" clip-rule="evenodd" d="M46.0982 48.602V40.5967H46.7625C47.2607 40.5967 48.0914 40.5113 48.0914 42.9083V46.2475C48.0914 48.6447 47.2604 48.602 46.7625 48.602H46.0982ZM40.9906 58.1911H39.7451V58.8765H48.7969C50.998 58.8765 53.2819 58.0622 53.2819 54.3809C53.2819 51.8557 52.4097 49.4582 49.0045 49.1155V48.8158C50.6658 48.6879 52.9911 47.8742 52.9911 44.3215C52.9911 40.2972 49.9596 39.8691 48.9636 39.8691H39.7449V40.597H40.9904V58.1911H40.9906ZM46.0982 58.1911V49.2869H46.7625C47.2607 49.2869 48.0914 49.2442 48.0914 51.6414V55.8355C48.0914 58.233 47.2604 58.1911 46.7625 58.1911H46.0982Z" fill="#333333"/>
<path fill-rule="evenodd" clip-rule="evenodd" d="M55.3995 40.597H54.1121V39.8691H65.5725V46.6756H65.1573C64.6165 40.6397 61.7105 40.5967 60.7971 40.5967H60.4649V48.9444H60.7137C62.3748 48.9444 63.0393 46.8044 62.9562 44.8777H63.4129V53.6533H62.9562C63.0393 51.7269 62.3748 49.6293 60.7137 49.6293H60.4649V58.1911C63.9527 58.277 65.157 54.9374 65.4478 51.556H65.9042V58.8765H54.1116V58.1911H55.399V40.597H55.3993H55.3995Z" fill="#333333"/>
<path fill-rule="evenodd" clip-rule="evenodd" d="M72.0512 40.597V58.1914H68.6877C70.1823 55.9227 70.3485 52.626 70.3485 47.9174V42.1385C70.3485 40.6402 70.8054 40.5972 71.179 40.5972H72.0512V40.597ZM68.1894 39.8694V40.5972H68.8537C69.2689 40.5972 69.8504 40.6831 69.8504 42.3523V47.9177C69.8504 55.6233 68.8123 58.1916 67.1932 58.1916H66.9438V62.0008H67.3591C67.442 59.1767 68.4389 58.877 70.6395 58.877H75.0408C77.2419 58.877 78.2384 59.1767 78.3215 62.0008H78.7367V58.1914H77.1588V40.597H78.4043V39.8691H68.1894V39.8694Z" fill="#333333"/>
<path fill-rule="evenodd" clip-rule="evenodd" d="M83.9259 41.9234C83.9259 40.7247 84.2997 40.2112 84.9226 40.2112C85.5041 40.2112 85.9191 40.725 85.9191 41.9234V56.907C85.9191 58.0619 85.5041 58.5761 84.9226 58.5761C84.2997 58.5761 83.9259 58.0616 83.9259 56.907V41.9234ZM78.5278 49.4147C78.5278 54.1238 80.687 59.3024 84.9224 59.3024C89.1573 59.3024 91.275 54.1238 91.275 49.4147C91.275 44.6631 89.1573 39.4834 84.9224 39.4834C80.687 39.4834 78.5278 44.6631 78.5278 49.4147Z" fill="#333333"/>
<path fill-rule="evenodd" clip-rule="evenodd" d="M93.5184 42.0526H93.477V55.8358C93.477 57.9776 94.1827 58.1914 94.7639 58.1914H95.0961V58.8767H91.6912V58.1914C92.2307 58.2333 92.9786 57.9336 92.9786 55.8358V40.597H91.6912V39.8691H98.0857L99.7048 47.6177H99.7882L101.449 39.8691H107.844V40.597H106.598V58.1914H107.844V58.8767H100.245V58.1914H101.49V42.1385H101.407L97.7947 58.8767H97.089L93.5184 42.0526Z" fill="#333333"/>
<path fill-rule="evenodd" clip-rule="evenodd" d="M113.822 41.9234C113.822 40.7247 114.237 40.2112 114.819 40.2112C115.442 40.2112 115.815 40.725 115.815 41.9234V56.907C115.815 58.0619 115.442 58.5761 114.819 58.5761C114.237 58.5761 113.822 58.0616 113.822 56.907V41.9234ZM108.466 49.4147C108.466 54.1238 110.583 59.3024 114.819 59.3024C119.053 59.3024 121.213 54.1238 121.213 49.4147C121.213 44.6631 119.053 39.4834 114.819 39.4834C110.583 39.4834 108.466 44.6631 108.466 49.4147Z" fill="#333333"/>
<path fill-rule="evenodd" clip-rule="evenodd" d="M133.628 46.1184H133.171C132.755 43.0365 131.303 40.639 129.641 40.639C127.814 40.639 127.732 43.4216 127.732 44.7487V53.524C127.732 54.3799 127.773 57.6326 129.849 57.6326C132.174 57.6326 133.088 54.337 133.42 51.8113L133.835 51.94C133.462 55.1083 132.299 59.3018 128.728 59.3018C124.451 59.3018 122.375 53.9091 122.375 49.3716C122.375 43.9346 124.95 39.4828 128.728 39.4828C129.476 39.4828 130.596 39.7395 131.635 40.7241L133.005 39.0547H133.42L133.628 46.1184Z" fill="#333333"/>
<path fill-rule="evenodd" clip-rule="evenodd" d="M138.363 40.5967C135.996 40.8108 135.165 44.621 135 46.6756H134.584V39.8691H147.249V46.6756H146.792C146.626 44.6212 145.795 40.8108 143.468 40.5967V58.1911H144.964V58.8765H136.825V58.1911H138.361V40.5967H138.361H138.363Z" fill="#333333"/>
<path fill-rule="evenodd" clip-rule="evenodd" d="M154.475 53.1398H154.557L156.467 41.881V40.5967H155.844V39.8691H162.82V40.5967H161.574V58.1911H162.82V58.8765H155.844V58.1911H156.467V44.8777H156.385L154.475 56.0933V58.1911H155.097V58.8765H148.119V58.1911H149.367V40.5967H148.119V39.8691H155.097V40.5967H154.475V53.1398Z" fill="#333333"/>
</g>
<defs>
<clipPath id="clip0">
<rect width="85.5802" height="23.1298" fill="white" transform="translate(116.42 0.320312)"/>
</clipPath>
<clipPath id="clip1">
<rect width="128" height="25" fill="white" transform="translate(37 37)"/>
</clipPath>
</defs>
</svg>
