<svg width="24" height="24" viewBox="0 0 24 24" fill="none" xmlns="http://www.w3.org/2000/svg">
<path d="M12 4.92188C7.22812 4.92188 3.16875 7.84688 1.5 12C3.16875 16.1531 7.22812 19.0781 12 19.0781C16.7719 19.0781 20.8312 16.1531 22.5 12C20.8312 7.84688 16.7719 4.92188 12 4.92188ZM12 16.7203C9.375 16.7203 7.22812 14.5969 7.22812 12C7.22812 9.40312 9.375 7.27969 12 7.27969C14.625 7.27969 16.7719 9.40312 16.7719 12C16.7719 14.5969 14.625 16.7203 12 16.7203ZM12 9.16875C10.425 9.16875 9.13594 10.4437 9.13594 12C9.13594 13.5562 10.425 14.8312 12 14.8312C13.575 14.8312 14.8641 13.5562 14.8641 12C14.8641 10.4437 13.575 9.16875 12 9.16875Z" fill="#D3D4D8"/>
</svg>
