<svg width="25" height="25" viewBox="0 0 25 25" fill="none" xmlns="http://www.w3.org/2000/svg">
<path d="M2.21028 3.03158C0.176132 6.1347 0.522667 10.3411 3.24988 13.0683L11.9412 21.7597C14.6697 24.4881 18.8786 24.8337 21.9821 22.7965L16.4658 17.2822C15.846 17.6834 15.0094 17.6124 14.4662 17.0692L7.92659 10.5296C7.38395 9.98694 7.31257 9.1515 7.71243 8.53183L2.21028 3.03158Z" fill="#53A1EA"/>
<path d="M17.9051 15.8931L23.5143 21.5003L24.0745 20.94C24.6993 20.3151 24.6993 19.3021 24.0745 18.6773L20.7291 15.3319C20.1042 14.707 19.0912 14.707 18.4663 15.3319L17.9051 15.8931Z" fill="#53A1EA"/>
<path d="M9.10119 7.09224L3.50572 1.49875L4.06905 0.935426C4.69389 0.310587 5.70695 0.310587 6.33179 0.935426L9.66353 4.26716C10.2884 4.892 10.2884 5.90507 9.66353 6.5299L9.10119 7.09224Z" fill="#53A1EA"/>
</svg>
