<svg width="26" height="26" viewBox="0 0 26 26" fill="none" xmlns="http://www.w3.org/2000/svg">
<path d="M24.635 0.966824C23.9905 0.322177 23.2182 0 22.3185 0H3.28494C2.3849 0 1.61282 0.322294 0.968172 0.966824C0.323642 1.61118 0.00146484 2.38338 0.00146484 3.28324V22.3166C0.00146484 23.2163 0.323584 23.9887 0.968172 24.6331C1.61282 25.2776 2.38508 25.6 3.28494 25.6H22.3182C23.2178 25.6 23.9903 25.2776 24.6348 24.6331C25.2795 23.9887 25.6013 23.2163 25.6013 22.3166V3.28324C25.6013 2.3832 25.2795 1.61141 24.635 0.966824ZM9.19342 9.22487C10.1989 8.2528 11.4073 7.76652 12.8184 7.76652C14.2404 7.76652 15.4542 8.2528 16.4599 9.22487C17.4657 10.1971 17.9682 11.3722 17.9682 12.75C17.9682 14.1275 17.4657 15.3027 16.4599 16.2747C15.4542 17.2471 14.2408 17.7334 12.8184 17.7334C11.4073 17.7334 10.1991 17.2467 9.19342 16.2747C8.18771 15.3026 7.68492 14.1275 7.68492 12.75C7.68492 11.3722 8.18771 10.1972 9.19342 9.22487ZM22.7018 21.6335C22.7018 21.9222 22.6015 22.1638 22.4017 22.3583C22.2013 22.5527 21.9628 22.65 21.6847 22.65H3.86835C3.57951 22.65 3.33766 22.5527 3.14338 22.3583C2.94881 22.1642 2.85162 21.9222 2.85162 21.6335V10.8331H5.20154C4.97942 11.5332 4.86833 12.2611 4.86833 13.0165C4.86833 15.1503 5.64602 16.9694 7.20157 18.4753C8.75729 19.9806 10.6295 20.7336 12.8183 20.7336C14.2628 20.7336 15.596 20.389 16.8187 19.7002C18.0409 19.0109 19.007 18.075 19.7186 16.8916C20.4298 15.7082 20.7853 14.4164 20.7853 13.0166C20.7853 12.2612 20.6738 11.5335 20.4517 10.8332H22.7019V21.6336H22.7018V21.6335ZM22.7018 6.74979C22.7018 7.07202 22.5907 7.34429 22.3681 7.56647C22.146 7.78882 21.8739 7.89986 21.5515 7.89986H18.6516C18.3296 7.89986 18.0571 7.78877 17.8349 7.56647C17.6128 7.34429 17.5017 7.07202 17.5017 6.74979V4.00004C17.5017 3.6889 17.6128 3.41949 17.8349 3.19165C18.0571 2.96393 18.3296 2.84992 18.6516 2.84992H21.5515C21.8739 2.84992 22.1461 2.96387 22.3681 3.19165C22.5907 3.41949 22.7018 3.6889 22.7018 4.00004V6.74979Z" fill="white"/>
</svg>
