<svg width="26" height="26" viewBox="0 0 26 26" fill="none" xmlns="http://www.w3.org/2000/svg">
<g clip-path="url(#clip0)">
<path d="M0.452171 12.3428L6.35092 14.5444L8.6341 21.8871C8.78019 22.3573 9.35525 22.5312 9.73695 22.2191L13.025 19.5386C13.3697 19.2578 13.8606 19.2438 14.2208 19.5053L20.1513 23.8109C20.5596 24.1077 21.1381 23.884 21.2405 23.3906L25.5849 2.4932C25.6967 1.95424 25.1671 1.50461 24.6539 1.7031L0.445259 11.0421C-0.152159 11.2725 -0.146954 12.1183 0.452171 12.3428ZM8.26614 13.3724L19.7945 6.2721C20.0017 6.14487 20.2149 6.42502 20.0369 6.59005L10.5227 15.434C10.1883 15.7453 9.97256 16.1619 9.91146 16.6141L9.58736 19.0159C9.54444 19.3365 9.09396 19.3684 9.00547 19.058L7.75901 14.6783C7.61625 14.1787 7.82429 13.6452 8.26614 13.3724Z" fill="white"/>
</g>
<defs>
<clipPath id="clip0">
<rect width="25.6" height="25.6" fill="white"/>
</clipPath>
</defs>
</svg>
