<svg width="85" height="56" viewBox="0 0 85 56" fill="none" xmlns="http://www.w3.org/2000/svg">
<path d="M82.5306 8.73481C81.5588 5.3197 78.7129 2.62701 75.1035 1.70756C68.5094 0 42.1329 0 42.1329 0C42.1329 0 15.7565 0 9.16235 1.64188C5.62235 2.56134 2.70706 5.3197 1.73529 8.73481C0 14.974 0 27.912 0 27.912C0 27.912 0 40.9157 1.73529 47.0892C2.70706 50.5043 5.55294 53.197 9.16235 54.1164C15.8259 55.824 42.1329 55.824 42.1329 55.824C42.1329 55.824 68.5094 55.824 75.1035 54.1821C78.7129 53.2626 81.5588 50.57 82.5306 47.1548C84.2659 40.9157 84.2659 27.9777 84.2659 27.9777C84.2659 27.9777 84.3353 14.974 82.5306 8.73481Z" fill="#FF0000"/>
<path d="M33.7341 39.8646L55.6682 27.9118L33.7341 15.959V39.8646Z" fill="white"/>
</svg>
