<svg width="26" height="19" viewBox="0 0 26 19" fill="none" xmlns="http://www.w3.org/2000/svg">
<path d="M25.5856 7.65727C25.5763 7.14305 25.5356 6.49288 25.4643 5.70735C25.3927 4.92138 25.2903 4.21897 25.1571 3.60007C25.0047 2.90491 24.6737 2.31914 24.1643 1.84294C23.6549 1.36664 23.062 1.09054 22.3856 1.01424C20.2711 0.776313 17.0759 0.657227 12.7999 0.657227C8.52386 0.657227 5.32863 0.776313 3.21434 1.01424C2.53805 1.09049 1.94747 1.36664 1.44285 1.84294C0.938033 2.31899 0.609444 2.90476 0.457033 3.60007C0.314329 4.21917 0.207051 4.92153 0.135649 5.70735C0.0643469 6.49288 0.0238173 7.1428 0.0143605 7.65727C0.00470343 8.17155 0 8.88577 0 9.80013C0 10.7144 0.00470343 11.4288 0.0144105 11.943C0.0238674 12.4576 0.0643969 13.1074 0.135699 13.8929C0.207101 14.6788 0.309525 15.3812 0.442873 16.0002C0.595284 16.6956 0.926175 17.2812 1.4357 17.7572C1.94532 18.2334 2.5383 18.5096 3.21439 18.5858C5.32868 18.824 8.52371 18.943 12.8 18.943C17.0764 18.943 20.2712 18.824 22.3856 18.5858C23.062 18.5096 23.6523 18.2334 24.1571 17.7572C24.662 17.2812 24.9904 16.6952 25.1428 16.0002C25.2856 15.3812 25.3927 14.6788 25.4643 13.8929C25.5356 13.1074 25.576 12.4573 25.5856 11.943C25.5951 11.4288 25.5999 10.7144 25.5999 9.80013C25.5999 8.88577 25.5952 8.17155 25.5856 7.65727ZM17.8572 10.5716L10.543 15.1429C10.4096 15.2381 10.2475 15.2857 10.0571 15.2857C9.91437 15.2857 9.76676 15.2475 9.6144 15.1713C9.30017 15.0001 9.14311 14.7333 9.14311 14.3715V5.22886C9.14311 4.86714 9.30022 4.60035 9.6144 4.42897C9.93829 4.2573 10.2477 4.26691 10.543 4.45754L17.8572 9.02887C18.1428 9.19049 18.2856 9.44778 18.2856 9.80018C18.2856 10.1524 18.1428 10.4098 17.8572 10.5716Z" fill="white"/>
</svg>
