<svg width="13" height="23" viewBox="0 0 13 23" fill="none" xmlns="http://www.w3.org/2000/svg">
<path d="M11.7996 0.0046607L8.89477 0C5.63136 0 3.52239 2.16373 3.52239 5.51267V8.05438H0.601768C0.349391 8.05438 0.14502 8.25899 0.14502 8.51136V12.194C0.14502 12.4464 0.349624 12.6508 0.601768 12.6508H3.52239V21.9433C3.52239 22.1956 3.72676 22.4 3.97914 22.4H7.78972C8.0421 22.4 8.24647 22.1954 8.24647 21.9433V12.6508H11.6614C11.9137 12.6508 12.1181 12.4464 12.1181 12.194L12.1195 8.51136C12.1195 8.39018 12.0713 8.27413 11.9857 8.18838C11.9002 8.10262 11.7837 8.05438 11.6625 8.05438H8.24647V5.89974C8.24647 4.86413 8.49325 4.33841 9.84229 4.33841L11.7991 4.33771C12.0512 4.33771 12.2556 4.1331 12.2556 3.88096V0.461409C12.2556 0.209498 12.0515 0.00512676 11.7996 0.0046607Z" fill="white"/>
</svg>
