<svg width="175" height="54" viewBox="0 0 175 54" fill="none" xmlns="http://www.w3.org/2000/svg">
<path d="M0.297241 20.6597C0.297241 9.28843 10.4822 0.0332031 22.6038 0.0332031C29.3026 0.0332031 34.0875 2.49129 37.6647 5.71886L33.4267 9.69455C30.852 7.42883 27.3659 5.67611 22.6038 5.67611C13.7632 5.67611 6.83655 12.3664 6.83655 20.6597C6.83655 28.9531 13.7632 35.6434 22.6038 35.6434C28.3456 35.6434 31.6039 33.4845 33.7001 31.5181C35.409 29.915 36.5482 27.5851 36.9812 24.4217H22.6038V18.8001H42.8141C43.0192 19.8048 43.1331 21.0231 43.1331 22.327C43.1331 26.5591 41.9027 31.7746 37.9381 35.4938C34.0875 39.2557 29.1431 41.2863 22.6038 41.2863C10.4822 41.2863 0.297241 32.0311 0.297241 20.6597Z" fill="#4285F4"/>
<path d="M59.4706 14.7383C51.6325 14.7383 45.2527 20.3171 45.2527 28.0119C45.2527 35.6641 51.6325 41.2856 59.4706 41.2856C67.3086 41.2856 73.6884 35.6427 73.6884 28.0119C73.6884 20.3171 67.3086 14.7383 59.4706 14.7383ZM59.4706 36.0488C55.187 36.0488 51.473 32.7357 51.473 28.0119C51.473 23.224 55.1642 19.9751 59.4706 19.9751C63.7541 19.9751 67.4681 23.2454 67.4681 28.0119C67.4681 32.7357 63.7769 36.0488 59.4706 36.0488Z" fill="#EA4335"/>
<path d="M90.4813 14.7383C82.6432 14.7383 76.2634 20.3171 76.2634 28.0119C76.2634 35.6641 82.6432 41.2856 90.4813 41.2856C98.3193 41.2856 104.699 35.6427 104.699 28.0119C104.676 20.3171 98.2965 14.7383 90.4813 14.7383ZM90.4813 36.0488C86.1977 36.0488 82.4837 32.7357 82.4837 28.0119C82.4837 23.224 86.1749 19.9751 90.4813 19.9751C94.7876 19.9751 98.4788 23.2454 98.4788 28.0119C98.456 32.7357 94.7649 36.0488 90.4813 36.0488Z" fill="#FBBC05"/>
<path d="M128.506 15.53V17.6889H128.301C126.911 16.1285 124.222 14.7178 120.85 14.7178C113.764 14.7178 107.293 20.5531 107.293 28.0556C107.293 35.4939 113.787 41.2865 120.85 41.2865C124.222 41.2865 126.911 39.8757 128.301 38.2726H128.506V40.175C128.506 45.2622 125.612 47.9767 120.941 47.9767C117.136 47.9767 114.766 45.4118 113.809 43.2529L108.387 45.369C109.936 48.8958 114.06 53.2135 120.941 53.2135C128.232 53.2135 134.407 49.1951 134.407 39.3841V15.53H128.506ZM121.374 36.0497C117.09 36.0497 113.49 32.6725 113.49 28.0556C113.49 23.3745 117.09 19.9546 121.374 19.9546C125.612 19.9546 128.939 23.3745 128.939 28.0556C128.939 32.6939 125.612 36.0497 121.374 36.0497Z" fill="#4285F4"/>
<path d="M138.692 1.44336H144.913V40.4735H138.692V1.44336Z" fill="#34A853"/>
<path d="M161.979 36.0488C158.811 36.0488 156.556 34.6808 155.12 32.0304L174.055 24.6775L173.417 23.1599C172.209 20.2102 168.609 14.7383 161.272 14.7383C153.981 14.7383 147.92 20.1247 147.92 28.0119C147.92 35.4503 153.935 41.2856 161.956 41.2856C168.45 41.2856 172.186 37.5664 173.758 35.4076L168.928 32.3937C167.333 34.5953 165.123 36.0488 161.979 36.0488ZM161.477 19.8682C163.938 19.8682 166.034 21.0224 166.741 22.6897L154.095 27.6272C153.935 22.4759 158.333 19.8682 161.477 19.8682Z" fill="#EA4335"/>
</svg>
