<svg width="240" height="50" viewBox="0 0 240 50" fill="none" xmlns="http://www.w3.org/2000/svg">
<path d="M15.8809 3.69774H13.1405C12.2945 3.69774 11.4775 3.87532 10.686 4.23222C9.89281 4.58912 9.18813 5.15808 8.57537 5.94256C7.9592 6.72705 7.46899 7.73222 7.09452 8.96325C6.72686 10.1908 6.54303 11.6598 6.54303 13.3702C6.54303 15.0426 6.74728 16.4615 7.15069 17.6184C7.55579 18.777 8.09196 19.7305 8.7609 20.4805C9.42984 21.227 10.1856 21.7701 11.0298 22.1081C11.8724 22.4477 12.7524 22.6167 13.6681 22.6167H15.8809V3.69601V3.69774ZM5.32771 41.3788H0.52771L9.07579 25.396C6.57877 24.1857 4.79324 22.5736 3.7209 20.5598C2.64856 18.5477 2.11069 16.1512 2.11069 13.3702C2.11069 11.2322 2.41026 9.34601 3.00771 7.70636C3.60345 6.06843 4.41537 4.68912 5.43494 3.56498C6.45622 2.44084 7.6426 1.59601 8.99579 1.02532C10.3524 0.456358 11.7839 0.171875 13.2988 0.171875H20.0528V41.3788H15.8809V26.0926H13.1405L5.32771 41.3788Z" fill="#FF0000"/>
<path fill-rule="evenodd" clip-rule="evenodd" d="M61.7872 46.7236H58.0425V41.327H46.3829V46.7236H42.6348V37.8512H44.2689C45.1148 36.2477 45.7736 34.5202 46.2502 32.6667C46.7268 30.8133 47.0842 28.9426 47.331 27.0546C47.5778 25.1667 47.7259 23.296 47.7804 21.4426C47.8348 19.5891 47.8604 17.8253 47.8604 16.1495V13.8012H59.6799V37.8529H61.7906V46.7236H61.7872ZM80.0459 40.096C79.1659 40.596 78.1906 41.0305 77.1182 41.4064C76.0459 41.7805 74.8374 41.9667 73.5029 41.9667C70.7591 41.9667 68.5599 40.8115 66.9072 38.4943C65.2561 36.1788 64.4272 32.9184 64.4272 28.7133C64.4272 26.6822 64.5974 24.7305 64.9293 22.8615C65.2646 20.9874 65.7736 19.3322 66.4612 17.8891C67.1472 16.4443 68.017 15.2857 69.0723 14.415C70.1276 13.5426 71.3923 13.1046 72.868 13.1046C75.0502 13.1046 76.8102 14.2115 78.1446 16.4202C79.4825 18.627 80.1531 21.8891 80.1531 26.2012V28.5529H68.8068C68.8068 31.546 69.3072 33.8805 70.3097 35.5529C71.314 37.2288 72.8868 38.0667 75.0331 38.0667C75.8417 38.0667 76.6774 37.9512 77.5387 37.7219C78.4017 37.4874 79.0791 37.265 79.571 37.0495L80.0476 40.0977L80.0459 40.096ZM72.7097 16.527C72.114 16.527 71.5863 16.7391 71.1268 17.165C70.6706 17.596 70.2842 18.1908 69.9693 18.9581C69.651 19.7236 69.4042 20.6236 69.2289 21.6564C69.0536 22.6908 68.9293 23.8115 68.8595 25.0253H75.8246V24.4391C75.8246 24.2598 75.8161 24.0633 75.7991 23.8495C75.7821 23.6357 75.7719 23.4046 75.7719 23.1546C75.6306 21.0512 75.2953 19.4202 74.7676 18.2615C74.2399 17.1064 73.5557 16.5253 72.7114 16.5253L72.7097 16.527ZM55.5097 17.2202V37.8512H47.9659C48.6672 36.6753 49.2476 35.2857 49.7055 33.6822C50.1651 32.0788 50.5327 30.377 50.8119 28.5788C51.0944 26.7788 51.2885 24.9443 51.394 23.0719C51.4995 21.2012 51.5523 19.4288 51.5523 17.7546V17.2202H55.5097ZM40.2076 13.7995V41.327H36.0374V28.177H29.8127V41.3253H25.5914V13.7977H29.8127V24.6477H36.0391V13.7995H40.2093H40.2076ZM100.204 41.327H95.5063L89.0161 27.7495L88.5395 27.1633V41.3253H84.3182V13.7977H88.5395V26.3046L89.0161 25.7702L94.7693 13.7977H99.2527L92.6059 26.1977L100.204 41.3236V41.327ZM105.637 27.6426C105.637 30.8839 106.131 33.4322 107.115 35.2857C108.102 37.1391 109.612 38.065 111.653 38.065C112.427 38.065 113.219 37.9495 114.027 37.7202C114.837 37.4857 115.491 37.2633 115.981 37.0477L116.403 40.096C115.595 40.596 114.689 41.0305 113.687 41.4064C112.683 41.7805 111.549 41.9667 110.283 41.9667C107.576 41.9667 105.384 40.8288 103.712 38.5477C102.044 36.2667 101.207 32.9891 101.207 28.7133C101.207 26.3615 101.445 24.2236 101.922 22.2995C102.395 20.3753 103.037 18.7357 103.845 17.3822C104.654 16.0305 105.622 14.9788 106.747 14.2305C107.871 13.4822 109.086 13.1098 110.39 13.1098C111.547 13.1098 112.596 13.2684 113.528 13.5891C114.46 13.9098 115.295 14.3374 116.034 14.8719L113.869 18.5615C113.375 17.9891 112.822 17.5098 112.206 17.1167C111.593 16.7253 110.968 16.5305 110.334 16.5305C109.597 16.5305 108.928 16.8495 108.33 17.4908C107.734 18.1322 107.241 18.9702 106.853 20.0029C106.466 21.0374 106.167 22.2201 105.956 23.5581C105.745 24.8943 105.639 26.2564 105.639 27.6443L105.637 27.6426ZM134.625 34.9322H136.677L142.311 13.7115C142.73 12.1115 143.1 10.565 143.571 8.43222H143.784C143.678 10.3529 143.573 12.2719 143.573 14.0874V40.7995H146.099V2.67188H143.151L136.732 27.0408C136.466 28.0012 136.044 30.0271 135.835 31.4667H135.677C135.518 30.0288 135.149 28.0564 134.887 27.0426L128.517 2.67188H125.464V40.7977H127.779V14.0857C127.779 12.1633 127.728 10.2443 127.622 8.4305H127.78C128.097 10.1891 128.519 11.896 129.045 13.8702L134.621 34.9305L134.625 34.9322ZM157.26 39.3064C159.734 39.3064 161.472 36.9098 162.417 34.0271V26.6167H159.574C155.207 26.6167 153.101 28.6426 153.101 33.3339C153.101 37.1202 154.735 39.3064 157.26 39.3064ZM163.156 40.7995C162.945 40.1064 162.683 39.0926 162.526 37.1736C161.261 39.7339 159.365 41.334 156.734 41.334C153.156 41.334 150.681 38.4546 150.681 33.5477C150.681 27.7891 153.787 24.8029 159.525 24.8029H162.419V21.4443C162.419 17.3374 160.894 15.577 157.998 15.577C155.734 15.577 153.682 16.646 152.419 18.5115L151.734 16.1115C152.786 14.7253 154.997 13.3908 157.998 13.3908C162.368 13.3908 164.841 15.8443 164.841 21.177V35.8408C164.841 37.7064 165.106 39.7891 165.42 40.7995H163.156ZM177.896 39.3064C181.266 39.3064 183.476 35.2546 183.476 26.7753C183.476 19.7357 181.581 15.5753 178.528 15.5753C176.158 15.5753 174.158 18.1357 173.001 21.015V36.0495C174.053 38.2391 175.527 39.3029 177.896 39.3029V39.3064ZM177.738 41.2805C175.74 41.2805 174.002 40.2667 173.003 38.9357V49.1184H170.528V13.9236H172.686L172.897 18.3495C174.054 15.7891 176.003 13.3891 178.95 13.3891C183.372 13.3891 185.952 18.7753 185.952 26.5615C185.952 36.4236 182.688 41.2788 177.74 41.2788L177.738 41.2805ZM193.164 26.8839L202.376 40.7977H205.117L195.743 26.4012L204.482 13.9253H202.061L193.164 26.5633V13.9253H190.689V40.7995H193.163V26.8788L193.164 26.8839ZM220.643 36.2667L221.433 38.2943C221.433 38.2943 219.435 41.334 215.224 41.334C209.59 41.334 207.011 36.1615 207.011 27.3615C207.011 18.5615 210.274 13.3891 214.749 13.3891C219.328 13.3891 222.277 18.2426 221.435 27.7857H209.435C209.537 35.1477 211.435 39.1477 215.278 39.1477C218.802 39.1477 220.645 36.2684 220.647 36.265L220.643 36.2667ZM214.747 15.4736C211.956 15.4736 209.692 19.0977 209.484 25.8184H219.118C219.54 18.6702 217.433 15.4736 214.749 15.4736H214.747ZM238.963 16.0046V13.9236H224.223V16.0029H230.385V40.796H232.856V16.0046H238.963Z" fill="#333333"/>
</svg>
