<svg width="52" height="48" viewBox="0 0 52 48" fill="none" xmlns="http://www.w3.org/2000/svg">
<rect x="1.5" y="1.5" width="49" height="45" stroke="white" stroke-width="3"/>
<path d="M20.4922 19.5469C20.4922 20.6562 20.2865 21.638 19.875 22.4922C19.4635 23.3464 18.8776 24.0052 18.1172 24.4688C17.362 24.9271 16.5 25.1562 15.5312 25.1562C14.5625 25.1562 13.7031 24.9349 12.9531 24.4922C12.2031 24.0443 11.6172 23.4062 11.1953 22.5781C10.7786 21.75 10.5599 20.7995 10.5391 19.7266V19.0859C10.5391 17.9714 10.7422 16.9896 11.1484 16.1406C11.5599 15.2865 12.1458 14.6276 12.9062 14.1641C13.6719 13.7005 14.5417 13.4688 15.5156 13.4688C16.4792 13.4688 17.3385 13.6979 18.0938 14.1562C18.849 14.6146 19.4349 15.2682 19.8516 16.1172C20.2734 16.9609 20.487 17.9297 20.4922 19.0234V19.5469ZM17.7031 19.0703C17.7031 17.9401 17.513 17.0833 17.1328 16.5C16.7578 15.9115 16.2188 15.6172 15.5156 15.6172C14.1406 15.6172 13.4141 16.6484 13.3359 18.7109L13.3281 19.5469C13.3281 20.6615 13.513 21.5182 13.8828 22.1172C14.2526 22.7161 14.8021 23.0156 15.5312 23.0156C16.224 23.0156 16.7578 22.7214 17.1328 22.1328C17.5078 21.5443 17.6979 20.6979 17.7031 19.5938V19.0703Z" fill="white"/>
<path d="M23.4609 13.625L26 21.5391L28.5312 13.625H32.1406V25H29.3906V22.3438L29.6562 16.9062L26.9062 25H25.0938L22.3359 16.8984L22.6016 22.3438V25H19.8594V13.625H23.4609Z" fill="white"/>
<path d="M13.5566 28.1797L15.8125 34.1738L18.063 28.1797H19.8193V36H18.4658V33.4219L18.6001 29.9736L16.2905 36H15.3184L13.0142 29.979L13.1484 33.4219V36H11.7949V28.1797H13.5566ZM25.5615 32.5088H22.3496V34.915H26.1039V36H20.9907V28.1797H26.0663V29.2754H22.3496V31.4346H25.5615V32.5088ZM26.7704 36V28.1797H29.08C29.771 28.1797 30.3833 28.3337 30.9169 28.6416C31.454 28.9495 31.8693 29.3864 32.163 29.9521C32.4566 30.5179 32.6034 31.166 32.6034 31.8965V32.2886C32.6034 33.0298 32.4548 33.6815 32.1576 34.2437C31.864 34.8058 31.4432 35.2391 30.8954 35.5435C30.3511 35.8478 29.7263 36 29.0209 36H26.7704ZM28.1293 29.2754V34.915H29.0155C29.7281 34.915 30.2741 34.693 30.6537 34.249C31.0368 33.8014 31.232 33.1605 31.2391 32.3262V31.8911C31.2391 31.0425 31.0547 30.3944 30.6859 29.9468C30.3171 29.4992 29.7818 29.2754 29.08 29.2754H28.1293ZM34.951 36H33.5975V28.1797H34.951V36ZM40.6555 34.1792H37.6262L36.9924 36H35.5798L38.5339 28.1797H39.7532L42.7127 36H41.2947L40.6555 34.1792ZM38.0076 33.0835H40.2742L39.1409 29.8394L38.0076 33.0835Z" fill="white"/>
<path d="M41.1719 23.5938C40.75 24.0625 40.1328 24.4401 39.3203 24.7266C38.5078 25.013 37.6172 25.1562 36.6484 25.1562C35.1589 25.1562 33.9688 24.7005 33.0781 23.7891C32.1875 22.8776 31.7109 21.6094 31.6484 19.9844L31.6406 19C31.6406 17.8802 31.8385 16.9036 32.2344 16.0703C32.6302 15.2318 33.1953 14.5885 33.9297 14.1406C34.6693 13.6875 35.5234 13.4609 36.4922 13.4609C37.9089 13.4609 39.0078 13.7865 39.7891 14.4375C40.5755 15.0833 41.0339 16.0495 41.1641 17.3359H38.5234C38.4297 16.7005 38.2266 16.2474 37.9141 15.9766C37.6016 15.7057 37.1589 15.5703 36.5859 15.5703C35.8984 15.5703 35.3672 15.862 34.9922 16.4453C34.6172 17.0286 34.4271 17.862 34.4219 18.9453V19.6328C34.4219 20.7682 34.6146 21.6224 35 22.1953C35.3906 22.763 36.0026 23.0469 36.8359 23.0469C37.5495 23.0469 38.0807 22.888 38.4297 22.5703V20.8047H36.5234V18.9219H41.1719V23.5938Z" fill="white"/>
</svg>
