<svg width="24" height="24" viewBox="0 0 24 24" fill="none" xmlns="http://www.w3.org/2000/svg">
<path d="M3.31387 7.71094L11.2451 11.5406C11.4514 11.6391 11.7279 11.6906 11.9998 11.6906C12.2717 11.6906 12.5482 11.6391 12.7545 11.5406L20.6857 7.71094C21.1029 7.50937 21.1029 7.18125 20.6857 6.97969L12.7545 3.15C12.5482 3.05156 12.2717 3 11.9998 3C11.7279 3 11.4514 3.05156 11.2451 3.15L3.31387 6.97969C2.89668 7.18125 2.89668 7.50937 3.31387 7.71094Z" fill="#D3D4D8"/>
<path d="M20.6858 11.6346C20.6858 11.6346 19.2374 10.9362 19.0452 10.8424C18.853 10.7487 18.8015 10.7534 18.5999 10.8471C18.3983 10.9409 12.7499 13.669 12.7499 13.669C12.539 13.7674 12.2671 13.819 11.9952 13.819C11.7233 13.819 11.4468 13.7674 11.2405 13.669C11.2405 13.669 5.74209 11.0159 5.48428 10.8893C5.20303 10.7534 5.12334 10.7534 4.87021 10.8752L3.30459 11.6299C2.8874 11.8315 2.8874 12.1596 3.30459 12.3612L11.2358 16.1909C11.4421 16.2893 11.7187 16.3409 11.9905 16.3409C12.2624 16.3409 12.539 16.2893 12.7452 16.1909L20.6765 12.3612C21.103 12.1643 21.103 11.8362 20.6858 11.6346Z" fill="#D3D4D8"/>
<path d="M20.686 16.2889C20.686 16.2889 19.2376 15.5905 19.0454 15.4967C18.8532 15.403 18.8017 15.4077 18.6001 15.5014C18.3985 15.5952 12.7548 18.328 12.7548 18.328C12.5438 18.4264 12.272 18.478 12.0001 18.478C11.7282 18.478 11.4517 18.4264 11.2454 18.328C11.2454 18.328 5.74697 15.6748 5.48916 15.5483C5.20791 15.4123 5.12822 15.4123 4.8751 15.5342L3.30947 16.2889C2.89229 16.4905 2.89229 16.8186 3.30947 17.0202L11.2407 20.8499C11.447 20.953 11.7235 20.9999 11.9954 20.9999C12.2673 20.9999 12.5438 20.9483 12.7501 20.8499L20.6813 17.0202C21.1032 16.8186 21.1032 16.4905 20.686 16.2889Z" fill="#D3D4D8"/>
</svg>
