<svg width="113" height="42" viewBox="0 0 113 42" fill="none" xmlns="http://www.w3.org/2000/svg">
<rect x="0.5" y="0.5" width="112" height="41" fill="white" stroke="#F0F1F3"/>
<path d="M20.1729 27.9902V33H18.4854V20.2031H23.2051C24.6055 20.2031 25.7012 20.5605 26.4922 21.2754C27.2891 21.9902 27.6875 22.9365 27.6875 24.1143C27.6875 25.3564 27.2979 26.3145 26.5186 26.9883C25.7451 27.6562 24.6348 27.9902 23.1875 27.9902H20.1729ZM20.1729 26.6104H23.2051C24.1074 26.6104 24.7988 26.3994 25.2793 25.9775C25.7598 25.5498 26 24.9346 26 24.1318C26 23.3701 25.7598 22.7607 25.2793 22.3037C24.7988 21.8467 24.1396 21.6094 23.3018 21.5918H20.1729V26.6104ZM35.3516 33C35.2578 32.8125 35.1816 32.4785 35.123 31.998C34.3672 32.7832 33.4648 33.1758 32.416 33.1758C31.4785 33.1758 30.708 32.9121 30.1045 32.3848C29.5068 31.8516 29.208 31.1777 29.208 30.3633C29.208 29.373 29.583 28.6055 30.333 28.0605C31.0889 27.5098 32.1494 27.2344 33.5146 27.2344H35.0967V26.4873C35.0967 25.9189 34.9268 25.4678 34.5869 25.1338C34.2471 24.7939 33.7461 24.624 33.084 24.624C32.5039 24.624 32.0176 24.7705 31.625 25.0635C31.2324 25.3564 31.0361 25.7109 31.0361 26.127H29.4014C29.4014 25.6523 29.5684 25.1953 29.9023 24.7559C30.2422 24.3105 30.6992 23.959 31.2734 23.7012C31.8535 23.4434 32.4893 23.3145 33.1807 23.3145C34.2764 23.3145 35.1348 23.5898 35.7559 24.1406C36.377 24.6855 36.6992 25.4385 36.7227 26.3994V30.7764C36.7227 31.6494 36.834 32.3438 37.0566 32.8594V33H35.3516ZM32.6533 31.7607C33.1631 31.7607 33.6465 31.6289 34.1035 31.3652C34.5605 31.1016 34.8916 30.7588 35.0967 30.3369V28.3857H33.8223C31.8301 28.3857 30.834 28.9688 30.834 30.1348C30.834 30.6445 31.0039 31.043 31.3438 31.3301C31.6836 31.6172 32.1201 31.7607 32.6533 31.7607ZM43.8682 24.9492C43.6221 24.9082 43.3555 24.8877 43.0684 24.8877C42.002 24.8877 41.2783 25.3418 40.8975 26.25V33H39.2715V23.4902H40.8535L40.8799 24.5889C41.4131 23.7393 42.1689 23.3145 43.1475 23.3145C43.4639 23.3145 43.7041 23.3555 43.8682 23.4375V24.9492ZM48.0166 21.1875V23.4902H49.792V24.7471H48.0166V30.6445C48.0166 31.0254 48.0957 31.3125 48.2539 31.5059C48.4121 31.6934 48.6816 31.7871 49.0625 31.7871C49.25 31.7871 49.5078 31.752 49.8359 31.6816V33C49.4082 33.1172 48.9922 33.1758 48.5879 33.1758C47.8613 33.1758 47.3135 32.9561 46.9443 32.5166C46.5752 32.0771 46.3906 31.4531 46.3906 30.6445V24.7471H44.6592V23.4902H46.3906V21.1875H48.0166ZM53.2373 23.4902L53.29 24.6855C54.0166 23.7715 54.9658 23.3145 56.1377 23.3145C58.1475 23.3145 59.1611 24.4482 59.1787 26.7158V33H57.5527V26.707C57.5469 26.0215 57.3887 25.5146 57.0781 25.1865C56.7734 24.8584 56.2959 24.6943 55.6455 24.6943C55.1182 24.6943 54.6553 24.835 54.2568 25.1162C53.8584 25.3975 53.5479 25.7666 53.3252 26.2236V33H51.6992V23.4902H53.2373ZM65.5771 33.1758C64.2881 33.1758 63.2393 32.7539 62.4307 31.9102C61.6221 31.0605 61.2178 29.9268 61.2178 28.5088V28.21C61.2178 27.2666 61.3965 26.4258 61.7539 25.6875C62.1172 24.9434 62.6211 24.3633 63.2656 23.9473C63.916 23.5254 64.6191 23.3145 65.375 23.3145C66.6113 23.3145 67.5723 23.7217 68.2578 24.5361C68.9434 25.3506 69.2861 26.5166 69.2861 28.0342V28.7109H62.8438C62.8672 29.6484 63.1396 30.4072 63.6611 30.9873C64.1885 31.5615 64.8564 31.8486 65.665 31.8486C66.2393 31.8486 66.7256 31.7314 67.124 31.4971C67.5225 31.2627 67.8711 30.9521 68.1699 30.5654L69.1631 31.3389C68.3662 32.5635 67.1709 33.1758 65.5771 33.1758ZM65.375 24.6504C64.7188 24.6504 64.168 24.8906 63.7227 25.3711C63.2773 25.8457 63.002 26.5137 62.8965 27.375H67.6602V27.252C67.6133 26.4258 67.3906 25.7871 66.9922 25.3359C66.5938 24.8789 66.0547 24.6504 65.375 24.6504ZM75.7725 24.9492C75.5264 24.9082 75.2598 24.8877 74.9727 24.8877C73.9062 24.8877 73.1826 25.3418 72.8018 26.25V33H71.1758V23.4902H72.7578L72.7842 24.5889C73.3174 23.7393 74.0732 23.3145 75.0518 23.3145C75.3682 23.3145 75.6084 23.3555 75.7725 23.4375V24.9492Z" fill="#737373"/>
<rect x="1" y="1" width="10" height="40" fill="#4583F6"/>
<path d="M18.0664 11.9264C18.0664 9.2132 20.3461 7.00488 23.0593 7.00488C24.5588 7.00488 25.6298 7.59139 26.4305 8.36149L25.4819 9.3101C24.9056 8.7695 24.1253 8.35129 23.0593 8.35129C21.0805 8.35129 19.5301 9.94761 19.5301 11.9264C19.5301 13.9052 21.0805 15.5015 23.0593 15.5015C24.3446 15.5015 25.0739 14.9864 25.5431 14.5172C25.9256 14.1347 26.1806 13.5788 26.2775 12.824H23.0593V11.4827H27.5831C27.629 11.7224 27.6545 12.0131 27.6545 12.3242C27.6545 13.334 27.3791 14.5784 26.4917 15.4658C25.6298 16.3635 24.5231 16.848 23.0593 16.848C20.3461 16.848 18.0664 14.6396 18.0664 11.9264Z" fill="#4285F4"/>
<path d="M31.3108 10.5137C29.5564 10.5137 28.1284 11.8448 28.1284 13.6808C28.1284 15.5066 29.5564 16.8479 31.3108 16.8479C33.0653 16.8479 34.4933 15.5015 34.4933 13.6808C34.4933 11.8448 33.0653 10.5137 31.3108 10.5137ZM31.3108 15.5984C30.352 15.5984 29.5207 14.8079 29.5207 13.6808C29.5207 12.5384 30.3469 11.7632 31.3108 11.7632C32.2696 11.7632 33.101 12.5435 33.101 13.6808C33.101 14.8079 32.2747 15.5984 31.3108 15.5984Z" fill="#EA4335"/>
<path d="M38.2522 10.5137C36.4978 10.5137 35.0698 11.8448 35.0698 13.6808C35.0698 15.5066 36.4978 16.8479 38.2522 16.8479C40.0067 16.8479 41.4347 15.5015 41.4347 13.6808C41.4296 11.8448 40.0016 10.5137 38.2522 10.5137ZM38.2522 15.5984C37.2934 15.5984 36.4621 14.8079 36.4621 13.6808C36.4621 12.5384 37.2883 11.7632 38.2522 11.7632C39.2162 11.7632 40.0424 12.5435 40.0424 13.6808C40.0373 14.8079 39.2111 15.5984 38.2522 15.5984Z" fill="#FBBC05"/>
<path d="M46.7643 10.7026V11.2177H46.7183C46.4072 10.8454 45.8054 10.5088 45.0506 10.5088C43.4645 10.5088 42.0161 11.9011 42.0161 13.6912C42.0161 15.466 43.4696 16.8481 45.0506 16.8481C45.8054 16.8481 46.4072 16.5115 46.7183 16.129H46.7643V16.5829C46.7643 17.7967 46.1165 18.4444 45.071 18.4444C44.2193 18.4444 43.6889 17.8324 43.4747 17.3173L42.2609 17.8222C42.6077 18.6638 43.5308 19.694 45.071 19.694C46.7031 19.694 48.0852 18.7352 48.0852 16.3942V10.7026H46.7643ZM45.1679 15.5986C44.2091 15.5986 43.4033 14.7928 43.4033 13.6912C43.4033 12.5743 44.2091 11.7583 45.1679 11.7583C46.1165 11.7583 46.8612 12.5743 46.8612 13.6912C46.8612 14.7979 46.1165 15.5986 45.1679 15.5986Z" fill="#4285F4"/>
<path d="M49.0439 7.3418H50.4363V16.6545H49.0439V7.3418Z" fill="#34A853"/>
<path d="M54.2561 15.5984C53.5472 15.5984 53.0423 15.272 52.721 14.6396L56.9591 12.8852L56.8163 12.5231C56.546 11.8193 55.7402 10.5137 54.098 10.5137C52.466 10.5137 51.1094 11.7989 51.1094 13.6808C51.1094 15.4556 52.4558 16.8479 54.251 16.8479C55.7045 16.8479 56.5409 15.9605 56.8928 15.4454L55.8116 14.7263C55.4546 15.2516 54.9599 15.5984 54.2561 15.5984ZM54.1439 11.7377C54.6947 11.7377 55.1639 12.0131 55.322 12.4109L52.4915 13.589C52.4558 12.3599 53.4401 11.7377 54.1439 11.7377Z" fill="#EA4335"/>
</svg>
