<svg width="172" height="189" viewBox="0 0 172 189" fill="none" xmlns="http://www.w3.org/2000/svg">
<path d="M6.5 6.5H165.5V134.824L86 181.464L6.5 134.824V6.5Z" fill="white" stroke="#E54745" stroke-width="13"/>
<path d="M34.5479 37.9248C34.4424 38.8271 34.1084 39.5244 33.5459 40.0166C32.9873 40.5049 32.2432 40.749 31.3135 40.749C30.3057 40.749 29.4971 40.3877 28.8877 39.665C28.2822 38.9424 27.9795 37.9756 27.9795 36.7646V35.9443C27.9795 35.1514 28.1201 34.4541 28.4014 33.8525C28.6865 33.251 29.0889 32.79 29.6084 32.4697C30.1279 32.1455 30.7295 31.9834 31.4131 31.9834C32.3193 31.9834 33.0459 32.2373 33.5928 32.7451C34.1396 33.249 34.458 33.9482 34.5479 34.8428H33.417C33.3193 34.1631 33.1064 33.6709 32.7783 33.3662C32.4541 33.0615 31.999 32.9092 31.4131 32.9092C30.6943 32.9092 30.1299 33.1748 29.7197 33.7061C29.3135 34.2373 29.1104 34.9932 29.1104 35.9736V36.7998C29.1104 37.7256 29.3037 38.4619 29.6904 39.0088C30.0771 39.5557 30.6182 39.8291 31.3135 39.8291C31.9385 39.8291 32.417 39.6885 32.749 39.4072C33.085 39.1221 33.3076 38.6279 33.417 37.9248H34.5479ZM38.5498 40.749C37.6904 40.749 36.9912 40.4678 36.4521 39.9053C35.9131 39.3389 35.6436 38.583 35.6436 37.6377V37.4385C35.6436 36.8096 35.7627 36.249 36.001 35.7568C36.2432 35.2607 36.5791 34.874 37.0088 34.5967C37.4424 34.3154 37.9111 34.1748 38.415 34.1748C39.2393 34.1748 39.8799 34.4463 40.3369 34.9893C40.7939 35.5322 41.0225 36.3096 41.0225 37.3213V37.7725H36.7275C36.7432 38.3975 36.9248 38.9033 37.2725 39.29C37.624 39.6729 38.0693 39.8643 38.6084 39.8643C38.9912 39.8643 39.3154 39.7861 39.5811 39.6299C39.8467 39.4736 40.0791 39.2666 40.2783 39.0088L40.9404 39.5244C40.4092 40.3408 39.6123 40.749 38.5498 40.749ZM38.415 35.0654C37.9775 35.0654 37.6104 35.2256 37.3135 35.5459C37.0166 35.8623 36.833 36.3076 36.7627 36.8818H39.9385V36.7998C39.9072 36.249 39.7588 35.8232 39.4932 35.5225C39.2275 35.2178 38.8682 35.0654 38.415 35.0654ZM47.6377 37.5322C47.6377 38.4971 47.417 39.2744 46.9756 39.8643C46.5342 40.4541 45.9365 40.749 45.1826 40.749C44.4131 40.749 43.8076 40.5049 43.3662 40.0166V43.0693H42.2822V34.292H43.2725L43.3252 34.9951C43.7666 34.4482 44.3799 34.1748 45.165 34.1748C45.9268 34.1748 46.5283 34.4619 46.9697 35.0361C47.415 35.6104 47.6377 36.4092 47.6377 37.4326V37.5322ZM46.5537 37.4092C46.5537 36.6943 46.4014 36.1299 46.0967 35.7158C45.792 35.3018 45.374 35.0947 44.8428 35.0947C44.1865 35.0947 43.6943 35.3857 43.3662 35.9678V38.9971C43.6904 39.5752 44.1865 39.8643 44.8545 39.8643C45.374 39.8643 45.7861 39.6592 46.0908 39.249C46.3994 38.835 46.5537 38.2217 46.5537 37.4092ZM53.2627 35.1709H51.1357V40.6318H50.0518V35.1709H47.9658V34.292H53.2627V35.1709ZM58.4189 34.292H59.5029V40.6318H58.4189V36.0088L55.4951 40.6318H54.4111V34.292H55.4951V38.9209L58.4189 34.292ZM61.0088 37.5791C61.0088 36.5205 61.2139 35.6885 61.624 35.083C62.0342 34.4775 62.5967 34.1748 63.3115 34.1748C63.6436 34.1748 63.9346 34.2314 64.1846 34.3447V31.6318H65.2686V34.3799C65.542 34.2432 65.8623 34.1748 66.2295 34.1748C66.9482 34.1748 67.5127 34.4775 67.9229 35.083C68.333 35.6885 68.5381 36.5615 68.5381 37.7021C68.5381 38.6357 68.333 39.3779 67.9229 39.9287C67.5166 40.4795 66.9561 40.7549 66.2412 40.7549C65.8623 40.7549 65.5381 40.6924 65.2686 40.5674V43.0693H64.1846V40.585C63.9268 40.6982 63.6318 40.7549 63.2998 40.7549C62.5889 40.7549 62.0283 40.4795 61.6182 39.9287C61.2119 39.3779 61.0088 38.624 61.0088 37.667V37.5791ZM67.4541 37.5791C67.4541 36.7822 67.3174 36.165 67.0439 35.7275C66.7705 35.2861 66.3936 35.0654 65.9131 35.0654C65.667 35.0654 65.4521 35.1045 65.2686 35.1826V39.7705C65.4443 39.8369 65.6631 39.8701 65.9248 39.8701C66.4092 39.8701 66.7842 39.6826 67.0498 39.3076C67.3193 38.9326 67.4541 38.3564 67.4541 37.5791ZM62.0928 37.7021C62.0928 38.4131 62.2197 38.9521 62.4736 39.3193C62.7275 39.6865 63.0928 39.8701 63.5693 39.8701C63.7959 39.8701 64.001 39.835 64.1846 39.7646V35.165C64.0205 35.0986 63.8193 35.0654 63.5811 35.0654C63.1045 35.0654 62.7373 35.2783 62.4795 35.7041C62.2217 36.1299 62.0928 36.7959 62.0928 37.7021ZM74.0518 34.292H75.1357V40.6318H74.0518V36.0088L71.1279 40.6318H70.0439V34.292H71.1279V38.9209L74.0518 34.292ZM76.9697 34.292H78.0596V39.7471H80.9775V34.292H82.0615V39.7471H82.8174L82.7119 42.5127H81.7393V40.6318H76.9697V34.292ZM88.0908 34.292H89.1748V40.6318H88.0908V36.0088L85.167 40.6318H84.083V34.292H85.167V38.9209L88.0908 34.292ZM96.2705 37.5322C96.2705 38.4971 96.0498 39.2744 95.6084 39.8643C95.167 40.4541 94.5693 40.749 93.8154 40.749C93.0459 40.749 92.4404 40.5049 91.999 40.0166V43.0693H90.915V34.292H91.9053L91.958 34.9951C92.3994 34.4482 93.0127 34.1748 93.7979 34.1748C94.5596 34.1748 95.1611 34.4619 95.6025 35.0361C96.0479 35.6104 96.2705 36.4092 96.2705 37.4326V37.5322ZM95.1865 37.4092C95.1865 36.6943 95.0342 36.1299 94.7295 35.7158C94.4248 35.3018 94.0068 35.0947 93.4756 35.0947C92.8193 35.0947 92.3271 35.3857 91.999 35.9678V38.9971C92.3232 39.5752 92.8193 39.8643 93.4873 39.8643C94.0068 39.8643 94.4189 39.6592 94.7236 39.249C95.0322 38.835 95.1865 38.2217 95.1865 37.4092ZM97.3662 37.4033C97.3662 36.7822 97.4873 36.2236 97.7295 35.7275C97.9756 35.2314 98.3154 34.8486 98.749 34.5791C99.1865 34.3096 99.6846 34.1748 100.243 34.1748C101.106 34.1748 101.804 34.4736 102.335 35.0713C102.87 35.6689 103.138 36.4639 103.138 37.4561V37.5322C103.138 38.1494 103.019 38.7041 102.78 39.1963C102.546 39.6846 102.208 40.0654 101.767 40.3389C101.329 40.6123 100.825 40.749 100.255 40.749C99.3955 40.749 98.6982 40.4502 98.1631 39.8525C97.6318 39.2549 97.3662 38.4639 97.3662 37.4795V37.4033ZM98.4561 37.5322C98.4561 38.2354 98.6182 38.7998 98.9424 39.2256C99.2705 39.6514 99.708 39.8643 100.255 39.8643C100.806 39.8643 101.243 39.6494 101.567 39.2197C101.892 38.7861 102.054 38.1807 102.054 37.4033C102.054 36.708 101.888 36.1455 101.556 35.7158C101.228 35.2822 100.79 35.0654 100.243 35.0654C99.708 35.0654 99.2764 35.2783 98.9482 35.7041C98.6201 36.1299 98.4561 36.7393 98.4561 37.5322ZM104.597 40.6318V34.292H107.069C107.913 34.292 108.56 34.4404 109.009 34.7373C109.462 35.0303 109.688 35.4619 109.688 36.0322C109.688 36.3252 109.601 36.5908 109.425 36.8291C109.249 37.0635 108.989 37.2432 108.646 37.3682C109.028 37.458 109.335 37.6338 109.565 37.8955C109.8 38.1572 109.917 38.4697 109.917 38.833C109.917 39.415 109.702 39.8604 109.272 40.1689C108.847 40.4775 108.243 40.6318 107.462 40.6318H104.597ZM105.681 37.8486V39.7588H107.474C107.927 39.7588 108.265 39.6748 108.487 39.5068C108.714 39.3389 108.827 39.1025 108.827 38.7979C108.827 38.165 108.362 37.8486 107.433 37.8486H105.681ZM105.681 36.9814H107.081C108.097 36.9814 108.604 36.6846 108.604 36.0908C108.604 35.4971 108.124 35.1904 107.163 35.1709H105.681V36.9814ZM115.267 40.6318C115.204 40.5068 115.153 40.2842 115.114 39.9639C114.61 40.4873 114.009 40.749 113.31 40.749C112.685 40.749 112.171 40.5732 111.769 40.2217C111.37 39.8662 111.171 39.417 111.171 38.874C111.171 38.2139 111.421 37.7021 111.921 37.3389C112.425 36.9717 113.132 36.7881 114.042 36.7881H115.097V36.29C115.097 35.9111 114.983 35.6104 114.757 35.3877C114.53 35.1611 114.196 35.0479 113.755 35.0479C113.368 35.0479 113.044 35.1455 112.782 35.3408C112.521 35.5361 112.39 35.7725 112.39 36.0498H111.3C111.3 35.7334 111.411 35.4287 111.634 35.1357C111.86 34.8389 112.165 34.6045 112.548 34.4326C112.935 34.2607 113.358 34.1748 113.819 34.1748C114.55 34.1748 115.122 34.3584 115.536 34.7256C115.95 35.0889 116.165 35.5908 116.181 36.2314V39.1494C116.181 39.7314 116.255 40.1943 116.403 40.5381V40.6318H115.267ZM113.468 39.8057C113.808 39.8057 114.13 39.7178 114.435 39.542C114.739 39.3662 114.96 39.1377 115.097 38.8564V37.5557H114.247C112.919 37.5557 112.255 37.9443 112.255 38.7217C112.255 39.0615 112.368 39.3271 112.595 39.5186C112.821 39.71 113.112 39.8057 113.468 39.8057ZM123.06 40.6318H121.976V37.9248H119.063V40.6318H117.974V34.292H119.063V37.04H121.976V34.292H123.06V40.6318ZM129.985 40.6318H128.901V37.9248H125.989V40.6318H124.899V34.292H125.989V37.04H128.901V34.292H129.985V40.6318ZM131.444 37.4033C131.444 36.7822 131.565 36.2236 131.808 35.7275C132.054 35.2314 132.394 34.8486 132.827 34.5791C133.265 34.3096 133.763 34.1748 134.321 34.1748C135.185 34.1748 135.882 34.4736 136.413 35.0713C136.948 35.6689 137.216 36.4639 137.216 37.4561V37.5322C137.216 38.1494 137.097 38.7041 136.858 39.1963C136.624 39.6846 136.286 40.0654 135.845 40.3389C135.407 40.6123 134.903 40.749 134.333 40.749C133.474 40.749 132.776 40.4502 132.241 39.8525C131.71 39.2549 131.444 38.4639 131.444 37.4795V37.4033ZM132.534 37.5322C132.534 38.2354 132.696 38.7998 133.021 39.2256C133.349 39.6514 133.786 39.8643 134.333 39.8643C134.884 39.8643 135.321 39.6494 135.646 39.2197C135.97 38.7861 136.132 38.1807 136.132 37.4033C136.132 36.708 135.966 36.1455 135.634 35.7158C135.306 35.2822 134.868 35.0654 134.321 35.0654C133.786 35.0654 133.354 35.2783 133.026 35.7041C132.698 36.1299 132.534 36.7393 132.534 37.5322ZM141.206 40.749C140.347 40.749 139.647 40.4678 139.108 39.9053C138.569 39.3389 138.3 38.583 138.3 37.6377V37.4385C138.3 36.8096 138.419 36.249 138.657 35.7568C138.899 35.2607 139.235 34.874 139.665 34.5967C140.099 34.3154 140.567 34.1748 141.071 34.1748C141.896 34.1748 142.536 34.4463 142.993 34.9893C143.45 35.5322 143.679 36.3096 143.679 37.3213V37.7725H139.384C139.399 38.3975 139.581 38.9033 139.929 39.29C140.28 39.6729 140.726 39.8643 141.265 39.8643C141.647 39.8643 141.972 39.7861 142.237 39.6299C142.503 39.4736 142.735 39.2666 142.935 39.0088L143.597 39.5244C143.065 40.3408 142.269 40.749 141.206 40.749ZM141.071 35.0654C140.634 35.0654 140.267 35.2256 139.97 35.5459C139.673 35.8623 139.489 36.3076 139.419 36.8818H142.595V36.7998C142.563 36.249 142.415 35.8232 142.149 35.5225C141.884 35.2178 141.524 35.0654 141.071 35.0654ZM65.1924 56.6318C65.1299 56.5068 65.0791 56.2842 65.04 55.9639C64.5361 56.4873 63.9346 56.749 63.2354 56.749C62.6104 56.749 62.0967 56.5732 61.6943 56.2217C61.2959 55.8662 61.0967 55.417 61.0967 54.874C61.0967 54.2139 61.3467 53.7021 61.8467 53.3389C62.3506 52.9717 63.0576 52.7881 63.9678 52.7881H65.0225V52.29C65.0225 51.9111 64.9092 51.6104 64.6826 51.3877C64.4561 51.1611 64.1221 51.0479 63.6807 51.0479C63.2939 51.0479 62.9697 51.1455 62.708 51.3408C62.4463 51.5361 62.3154 51.7725 62.3154 52.0498H61.2256C61.2256 51.7334 61.3369 51.4287 61.5596 51.1357C61.7861 50.8389 62.0908 50.6045 62.4736 50.4326C62.8604 50.2607 63.2842 50.1748 63.7451 50.1748C64.4756 50.1748 65.0479 50.3584 65.4619 50.7256C65.876 51.0889 66.0908 51.5908 66.1064 52.2314V55.1494C66.1064 55.7314 66.1807 56.1943 66.3291 56.5381V56.6318H65.1924ZM63.3936 55.8057C63.7334 55.8057 64.0557 55.7178 64.3604 55.542C64.665 55.3662 64.8857 55.1377 65.0225 54.8564V53.5557H64.1729C62.8447 53.5557 62.1807 53.9443 62.1807 54.7217C62.1807 55.0615 62.2939 55.3271 62.5205 55.5186C62.7471 55.71 63.0381 55.8057 63.3936 55.8057ZM71.9014 51.1885H68.9775V56.6318H67.8877V50.292H71.9014V51.1885ZM75.3584 56.749C74.499 56.749 73.7998 56.4678 73.2607 55.9053C72.7217 55.3389 72.4521 54.583 72.4521 53.6377V53.4385C72.4521 52.8096 72.5713 52.249 72.8096 51.7568C73.0518 51.2607 73.3877 50.874 73.8174 50.5967C74.251 50.3154 74.7197 50.1748 75.2236 50.1748C76.0479 50.1748 76.6885 50.4463 77.1455 50.9893C77.6025 51.5322 77.8311 52.3096 77.8311 53.3213V53.7725H73.5361C73.5518 54.3975 73.7334 54.9033 74.0811 55.29C74.4326 55.6729 74.8779 55.8643 75.417 55.8643C75.7998 55.8643 76.124 55.7861 76.3896 55.6299C76.6553 55.4736 76.8877 55.2666 77.0869 55.0088L77.749 55.5244C77.2178 56.3408 76.4209 56.749 75.3584 56.749ZM75.2236 51.0654C74.7861 51.0654 74.4189 51.2256 74.1221 51.5459C73.8252 51.8623 73.6416 52.3076 73.5713 52.8818H76.7471V52.7998C76.7158 52.249 76.5674 51.8232 76.3018 51.5225C76.0361 51.2178 75.6768 51.0654 75.2236 51.0654ZM84.2705 56.6318H83.1865V53.9248H80.2744V56.6318H79.1846V50.292H80.2744V53.04H83.1865V50.292H84.2705V56.6318ZM88.5596 55.8643C88.9463 55.8643 89.2842 55.7471 89.5732 55.5127C89.8623 55.2783 90.0225 54.9854 90.0537 54.6338H91.0791C91.0596 54.9971 90.9346 55.3428 90.7041 55.6709C90.4736 55.999 90.165 56.2607 89.7783 56.4561C89.3955 56.6514 88.9893 56.749 88.5596 56.749C87.6963 56.749 87.0088 56.4619 86.4971 55.8877C85.9893 55.3096 85.7354 54.5205 85.7354 53.5205V53.3389C85.7354 52.7217 85.8486 52.1729 86.0752 51.6924C86.3018 51.2119 86.626 50.8389 87.0479 50.5732C87.4736 50.3076 87.9756 50.1748 88.5537 50.1748C89.2646 50.1748 89.8545 50.3877 90.3232 50.8135C90.7959 51.2393 91.0479 51.792 91.0791 52.4717H90.0537C90.0225 52.0615 89.8662 51.7256 89.585 51.4639C89.3076 51.1982 88.9639 51.0654 88.5537 51.0654C88.0029 51.0654 87.5752 51.2646 87.2705 51.6631C86.9697 52.0576 86.8193 52.6299 86.8193 53.3799V53.585C86.8193 54.3154 86.9697 54.8779 87.2705 55.2725C87.5713 55.667 88.001 55.8643 88.5596 55.8643ZM97.0088 51.1709H94.8818V56.6318H93.7979V51.1709H91.7119V50.292H97.0088V51.1709ZM98.1631 56.6318V50.292H100.636C101.479 50.292 102.126 50.4404 102.575 50.7373C103.028 51.0303 103.255 51.4619 103.255 52.0322C103.255 52.3252 103.167 52.5908 102.991 52.8291C102.815 53.0635 102.556 53.2432 102.212 53.3682C102.595 53.458 102.901 53.6338 103.132 53.8955C103.366 54.1572 103.483 54.4697 103.483 54.833C103.483 55.415 103.269 55.8604 102.839 56.1689C102.413 56.4775 101.81 56.6318 101.028 56.6318H98.1631ZM99.2471 53.8486V55.7588H101.04C101.493 55.7588 101.831 55.6748 102.054 55.5068C102.28 55.3389 102.394 55.1025 102.394 54.7979C102.394 54.165 101.929 53.8486 100.999 53.8486H99.2471ZM99.2471 52.9814H100.647C101.663 52.9814 102.171 52.6846 102.171 52.0908C102.171 51.4971 101.69 51.1904 100.729 51.1709H99.2471V52.9814ZM104.632 53.4033C104.632 52.7822 104.753 52.2236 104.995 51.7275C105.241 51.2314 105.581 50.8486 106.015 50.5791C106.452 50.3096 106.95 50.1748 107.509 50.1748C108.372 50.1748 109.069 50.4736 109.601 51.0713C110.136 51.6689 110.403 52.4639 110.403 53.4561V53.5322C110.403 54.1494 110.284 54.7041 110.046 55.1963C109.812 55.6846 109.474 56.0654 109.032 56.3389C108.595 56.6123 108.091 56.749 107.521 56.749C106.661 56.749 105.964 56.4502 105.429 55.8525C104.897 55.2549 104.632 54.4639 104.632 53.4795V53.4033ZM105.722 53.5322C105.722 54.2354 105.884 54.7998 106.208 55.2256C106.536 55.6514 106.974 55.8643 107.521 55.8643C108.071 55.8643 108.509 55.6494 108.833 55.2197C109.157 54.7861 109.319 54.1807 109.319 53.4033C109.319 52.708 109.153 52.1455 108.821 51.7158C108.493 51.2822 108.056 51.0654 107.509 51.0654C106.974 51.0654 106.542 51.2783 106.214 51.7041C105.886 52.1299 105.722 52.7393 105.722 53.5322Z" fill="#505565"/>
<g clip-path="url(#clip0)">
<path d="M55.5953 90.6268L51.2514 100.488H48.0825L52.8536 89.9428C50.6105 88.7911 49.1151 86.7037 49.1151 82.8527C49.1151 77.4542 52.4976 74.7549 56.521 74.7549H60.6155V100.488H57.874V90.6268H55.5953ZM57.874 77.0943H56.4141C54.2066 77.0943 52.0703 78.5698 52.0703 82.8527C52.0703 86.9915 54.0286 88.3232 56.4141 88.3232H57.874V77.0943Z" fill="#FF0000"/>
<path d="M73.8247 82.3485V100.488H71.0831V92.354H66.9529V100.488H64.1758V82.3485H66.9529V90.0505H71.0831V82.3485H73.8247ZM88.1024 104.051H85.61V100.488H77.9193V104.051H75.4269V98.1844H76.5308C78.1686 94.3334 78.3466 88.7188 78.3466 83.8961V82.3485H86.6783V98.1844H88.1024V104.051ZM83.9366 84.616H80.839V84.9399C80.839 88.7548 80.6609 94.3334 79.1655 98.1844H83.9366V84.616ZM95.7576 100.74C92.0547 100.74 89.7759 97.7525 89.7759 92.1741C89.7759 86.3436 91.3782 82.0967 95.188 82.0967C98.1788 82.0967 100.137 84.364 100.137 90.5185V92.0661H92.6599C92.6599 96.1689 93.7992 98.3285 96.0067 98.3285C97.5734 98.3285 98.8196 97.6087 99.5317 97.1047L100.173 99.2641C98.9078 100.245 97.3518 100.765 95.7576 100.74V100.74ZM92.6955 89.7626H97.2886C97.2886 86.6674 96.7901 84.4001 95.188 84.4001C93.4788 84.4001 92.8736 86.5235 92.6955 89.7626ZM105.763 91.4543V100.488H102.985V82.3485H105.763V90.7344L110.071 82.3485H112.884L108.433 90.8784L113.524 100.488H110.498L105.763 91.4543ZM113.881 91.4183C113.881 85.7317 116.053 82.0967 120.254 82.0967C121.856 82.0967 122.782 82.5286 123.565 83.0324L123.174 85.6957C122.426 85.0478 121.358 84.4361 120.218 84.4361C118.224 84.4361 116.8 86.7034 116.8 91.2743C116.8 95.809 117.868 98.4002 120.111 98.4002C121.221 98.4153 122.298 98.0184 123.138 97.2846L123.779 99.3721C122.748 100.289 121.413 100.778 120.04 100.74C116.195 100.74 113.881 97.6087 113.881 91.4183V91.4183Z" fill="black"/>
</g>
<path d="M60.9795 128.342L61.4795 127.725C62.042 126.995 62.3623 125.902 62.4404 124.443L62.5732 121.068H68.0186V128.342H69.1045V132.006H67.6592V129.521H61.7607V132.006H60.3154L60.3232 128.342H60.9795ZM62.6904 128.342H66.5732V122.404H63.9717L63.8857 124.42C63.7972 126.102 63.3988 127.41 62.6904 128.342ZM76.1748 121.068H77.6201V129.521H76.1748V123.357L72.2764 129.521H70.8311V121.068H72.2764V127.24L76.1748 121.068ZM87.0811 125.389C87.0811 126.675 86.7868 127.712 86.1982 128.498C85.6097 129.285 84.8128 129.678 83.8076 129.678C82.7816 129.678 81.9743 129.352 81.3857 128.701V132.771H79.9404V121.068H81.2607L81.3311 122.006C81.9196 121.277 82.7373 120.912 83.7842 120.912C84.7998 120.912 85.6019 121.295 86.1904 122.061C86.7842 122.826 87.0811 123.891 87.0811 125.256V125.389ZM85.6357 125.225C85.6357 124.271 85.4326 123.519 85.0264 122.967C84.6201 122.415 84.0628 122.139 83.3545 122.139C82.4795 122.139 81.8232 122.527 81.3857 123.303V127.342C81.818 128.113 82.4795 128.498 83.3701 128.498C84.0628 128.498 84.6123 128.225 85.0186 127.678C85.43 127.126 85.6357 126.308 85.6357 125.225ZM92.4326 129.678C91.2868 129.678 90.3545 129.303 89.6357 128.553C88.917 127.798 88.5576 126.79 88.5576 125.529V125.264C88.5576 124.425 88.7165 123.678 89.0342 123.021C89.3571 122.36 89.805 121.844 90.3779 121.475C90.9561 121.1 91.5811 120.912 92.2529 120.912C93.3519 120.912 94.2061 121.274 94.8154 121.998C95.4248 122.722 95.7295 123.758 95.7295 125.107V125.709H90.0029C90.0238 126.542 90.266 127.217 90.7295 127.732C91.1982 128.243 91.792 128.498 92.5107 128.498C93.0212 128.498 93.4535 128.394 93.8076 128.186C94.1618 127.977 94.4717 127.701 94.7373 127.357L95.6201 128.045C94.9118 129.133 93.8493 129.678 92.4326 129.678ZM92.2529 122.1C91.6696 122.1 91.18 122.313 90.7842 122.74C90.3883 123.162 90.1436 123.756 90.0498 124.521H94.2842V124.412C94.2425 123.678 94.0446 123.11 93.6904 122.709C93.3363 122.303 92.8571 122.1 92.2529 122.1ZM100.042 125.92H98.9873V129.521H97.5342V121.068H98.9873V124.646H99.9326L102.776 121.068H104.526L101.183 125.131L104.808 129.521H102.972L100.042 125.92ZM112.331 122.24H109.495V129.521H108.05V122.24H105.269V121.068H112.331V122.24Z" fill="#505565"/>
<path d="M76.8262 152.348H70.3047V151.438L73.75 147.61C74.2604 147.032 74.6113 146.562 74.8027 146.202C74.9987 145.838 75.0967 145.462 75.0967 145.074C75.0967 144.555 74.9395 144.129 74.625 143.796C74.3105 143.463 73.8913 143.297 73.3672 143.297C72.7383 143.297 72.2484 143.477 71.8975 143.837C71.5511 144.192 71.3779 144.689 71.3779 145.327H70.1133C70.1133 144.411 70.4072 143.671 70.9951 143.105C71.5876 142.54 72.3783 142.258 73.3672 142.258C74.2923 142.258 75.0238 142.502 75.5615 142.989C76.0993 143.472 76.3682 144.117 76.3682 144.924C76.3682 145.904 75.7438 147.07 74.4951 148.424L71.8291 151.315H76.8262V152.348ZM84.4072 148.103C84.4072 149.584 84.1543 150.684 83.6484 151.404C83.1426 152.124 82.3519 152.484 81.2764 152.484C80.2145 152.484 79.4284 152.133 78.918 151.432C78.4076 150.725 78.1432 149.673 78.125 148.273V146.585C78.125 145.122 78.3779 144.035 78.8838 143.324C79.3896 142.613 80.1826 142.258 81.2627 142.258C82.3337 142.258 83.1221 142.602 83.6279 143.29C84.1338 143.974 84.3936 145.031 84.4072 146.462V148.103ZM83.1426 146.373C83.1426 145.302 82.9922 144.523 82.6914 144.035C82.3906 143.543 81.9144 143.297 81.2627 143.297C80.6156 143.297 80.1439 143.541 79.8477 144.028C79.5514 144.516 79.3988 145.266 79.3896 146.277V148.301C79.3896 149.376 79.5446 150.172 79.8545 150.687C80.1689 151.197 80.6429 151.452 81.2764 151.452C81.9007 151.452 82.3633 151.211 82.6641 150.728C82.9694 150.244 83.1289 149.483 83.1426 148.444V146.373ZM90.1836 152.348H88.9121V143.919L86.3623 144.855V143.707L89.9854 142.347H90.1836V152.348ZM98.7354 147.973C98.471 148.287 98.1543 148.54 97.7852 148.731C97.4206 148.923 97.0195 149.019 96.582 149.019C96.0078 149.019 95.5065 148.877 95.0781 148.595C94.6543 148.312 94.3262 147.916 94.0938 147.405C93.8613 146.89 93.7451 146.323 93.7451 145.703C93.7451 145.038 93.8704 144.438 94.1211 143.905C94.3763 143.372 94.7363 142.964 95.2012 142.682C95.666 142.399 96.2083 142.258 96.8281 142.258C97.8125 142.258 98.5872 142.627 99.1523 143.365C99.722 144.099 100.007 145.102 100.007 146.373V146.742C100.007 148.679 99.624 150.094 98.8584 150.987C98.0928 151.876 96.9375 152.332 95.3926 152.354H95.1465V151.288H95.4131C96.4567 151.27 97.2588 150.999 97.8193 150.475C98.3799 149.946 98.6852 149.112 98.7354 147.973ZM96.7871 147.973C97.2109 147.973 97.6006 147.843 97.9561 147.583C98.3161 147.323 98.5781 147.002 98.7422 146.619V146.113C98.7422 145.284 98.5622 144.609 98.2021 144.09C97.8421 143.57 97.3864 143.311 96.835 143.311C96.279 143.311 95.8324 143.525 95.4951 143.953C95.1579 144.377 94.9893 144.938 94.9893 145.635C94.9893 146.314 95.151 146.874 95.4746 147.316C95.8027 147.754 96.2402 147.973 96.7871 147.973Z" fill="#080B1A"/>
<defs>
<clipPath id="clip0">
<rect width="76" height="29.6314" fill="white" transform="translate(48 74.4785)"/>
</clipPath>
</defs>
</svg>
