<svg width="26" height="16" viewBox="0 0 26 16" fill="none" xmlns="http://www.w3.org/2000/svg">
<path d="M25.4643 13.6879C25.4333 13.621 25.4044 13.5656 25.3775 13.5212C24.9334 12.7213 24.0846 11.7394 22.8317 10.5753L22.8053 10.5487L22.792 10.5356L22.7786 10.5222H22.7652C22.1965 9.98014 21.8365 9.61567 21.6857 9.42907C21.4098 9.07362 21.3479 8.71382 21.4987 8.34925C21.6053 8.07381 22.0055 7.49212 22.6984 6.60338C23.0628 6.13238 23.3515 5.75489 23.5646 5.47048C25.102 3.42662 25.7685 2.12056 25.5641 1.5518L25.4846 1.41889C25.4313 1.33887 25.2936 1.26567 25.0717 1.19891C24.8493 1.13229 24.565 1.12128 24.2184 1.16567L20.3797 1.19219C20.3176 1.17015 20.2288 1.17221 20.1131 1.19891C19.9975 1.22562 19.9397 1.23901 19.9397 1.23901L19.8729 1.27239L19.8199 1.3125C19.7755 1.33901 19.7266 1.38565 19.6732 1.45232C19.6201 1.51875 19.5757 1.59671 19.5403 1.68555C19.1223 2.76075 18.6472 3.76042 18.1139 4.6845C17.7851 5.23552 17.4831 5.71306 17.2074 6.11739C16.932 6.52159 16.7009 6.81939 16.5145 7.01029C16.3277 7.20137 16.1592 7.35445 16.0079 7.47009C15.8567 7.58577 15.7414 7.63465 15.6615 7.61677C15.5814 7.59889 15.506 7.58115 15.4347 7.56341C15.3103 7.48339 15.2103 7.37457 15.1349 7.23685C15.0592 7.09913 15.0082 6.92579 14.9816 6.71697C14.9551 6.508 14.9394 6.32827 14.9349 6.17715C14.9307 6.02622 14.9327 5.81273 14.9417 5.53729C14.9509 5.26171 14.9551 5.07525 14.9551 4.97749C14.9551 4.63977 14.9616 4.27325 14.9749 3.87783C14.9883 3.48241 14.9992 3.16911 15.0083 2.9383C15.0173 2.70725 15.0215 2.46281 15.0215 2.20511C15.0215 1.94741 15.0059 1.74531 14.9749 1.59863C14.9442 1.45213 14.8972 1.30993 14.8353 1.17207C14.7729 1.03435 14.6817 0.927814 14.562 0.852184C14.4421 0.776648 14.293 0.716705 14.1155 0.672168C13.6445 0.565586 13.0448 0.50793 12.316 0.498967C10.6633 0.481227 9.60134 0.587948 9.13039 0.818991C8.94379 0.916609 8.77493 1.04999 8.62395 1.21871C8.46396 1.41427 8.44164 1.52099 8.55714 1.53854C9.09038 1.61842 9.46787 1.8095 9.69004 2.1116L9.77011 2.27168C9.83239 2.38718 9.89457 2.59166 9.9568 2.88484C10.0189 3.17802 10.059 3.50234 10.0767 3.85761C10.121 4.50639 10.121 5.06176 10.0767 5.52375C10.0322 5.98593 9.99018 6.34573 9.95008 6.60343C9.90998 6.86113 9.85003 7.06995 9.77011 7.22985C9.69004 7.38979 9.63678 7.48755 9.61007 7.52303C9.58342 7.55851 9.56119 7.58087 9.54355 7.58965C9.42805 7.6339 9.30793 7.65645 9.18361 7.65645C9.0591 7.65645 8.90812 7.59417 8.73044 7.46971C8.5528 7.34525 8.36844 7.17429 8.17736 6.95655C7.98628 6.73877 7.77078 6.43443 7.53078 6.04349C7.29096 5.65255 7.04213 5.19051 6.78443 4.65737L6.57122 4.27073C6.43793 4.02199 6.25586 3.65981 6.02482 3.18451C5.79363 2.70903 5.58929 2.24909 5.41166 1.80479C5.34065 1.61819 5.23398 1.47613 5.09182 1.37837L5.02511 1.33827C4.98076 1.30279 4.90956 1.26511 4.8119 1.22496C4.71409 1.18486 4.61204 1.1561 4.50532 1.13841L0.853212 1.16493C0.480013 1.16493 0.226795 1.24947 0.093463 1.41833L0.0401023 1.49821C0.0134452 1.5427 0 1.61375 0 1.71156C0 1.80932 0.026657 1.9293 0.0800178 2.07136C0.613159 3.32438 1.19294 4.53282 1.81935 5.69686C2.44577 6.8609 2.99012 7.79856 3.45206 8.50901C3.9141 9.21997 4.38506 9.89097 4.86493 10.5217C5.34481 11.1526 5.66245 11.557 5.81786 11.7346C5.97346 11.9126 6.09569 12.0456 6.18453 12.1345L6.51781 12.4543C6.73107 12.6676 7.04423 12.9231 7.45744 13.2207C7.87074 13.5185 8.32829 13.8117 8.83034 14.1007C9.33248 14.3892 9.91665 14.6247 10.5832 14.8068C11.2496 14.9891 11.8982 15.0623 12.5292 15.027H14.062C14.3729 15.0002 14.6084 14.9024 14.7685 14.7337L14.8215 14.6669C14.8572 14.6138 14.8906 14.5314 14.9214 14.4206C14.9526 14.3095 14.9681 14.1871 14.9681 14.054C14.959 13.672 14.9881 13.3277 15.0546 13.0212C15.121 12.7148 15.1967 12.4837 15.2814 12.3281C15.366 12.1726 15.4615 12.0415 15.5679 11.9351C15.6744 11.8285 15.7503 11.764 15.7948 11.7417C15.8391 11.7194 15.8744 11.7042 15.9011 11.6951C16.1143 11.6241 16.3653 11.6929 16.6544 11.9019C16.9432 12.1107 17.2141 12.3685 17.4676 12.675C17.7208 12.9817 18.0251 13.3258 18.3805 13.7078C18.7361 14.09 19.047 14.3741 19.3135 14.561L19.5799 14.7209C19.7579 14.8276 19.989 14.9254 20.2734 15.0142C20.5572 15.103 20.806 15.1252 21.0196 15.0808L24.4316 15.0276C24.7691 15.0276 25.0317 14.9717 25.218 14.8609C25.4046 14.7498 25.5155 14.6274 25.5513 14.4943C25.5869 14.3611 25.5888 14.2099 25.558 14.0409C25.5264 13.8723 25.4953 13.7545 25.4643 13.6879Z" fill="white"/>
</svg>
