<svg width="155" height="54" viewBox="0 0 155 54" fill="none" xmlns="http://www.w3.org/2000/svg">
<path fill-rule="evenodd" clip-rule="evenodd" d="M145.137 43.7643H155V34.9539H145.137V43.7643ZM145.568 30.4437H154.633V2.01433H145.567V30.4437H145.568ZM21.6069 35.0502C20.2297 36.4441 18.4691 37.1411 16.3238 37.1411C14.2192 37.1411 12.4771 36.4349 11.1024 35.0212C9.72526 33.6086 9.03729 31.4341 9.03729 28.4943C9.03729 25.6703 9.72526 23.5504 11.1024 22.1378C12.4771 20.7253 14.2192 20.0178 16.3238 20.0178C18.4691 20.0178 20.2297 20.7253 21.6069 22.1378C22.9828 23.5504 23.672 25.6877 23.672 28.5511C23.672 31.4898 22.9816 33.6562 21.6069 35.0502ZM17.0032 13.8551C13.6595 13.8551 10.4638 14.7968 7.77971 16.4065C8.13479 15.481 8.43932 14.7028 8.65262 14.1856C9.87691 11.2132 12.7373 9.72532 16.2079 9.43075L30.2312 8.24436V0.90332L21.5662 1.81718C6.59611 3.15086 0 6.55232 0 25.5949C0 37.7558 6.71201 43.3364 16.3559 43.3364C25.9998 43.3364 32.3875 37.7511 32.3875 28.5963C32.3875 19.4403 25.8568 13.8562 17.0032 13.8562V13.8551ZM94.4181 35.0548C93.0422 36.4673 91.3001 37.1736 89.1955 37.1736C87.0502 37.1736 85.2896 36.4673 83.9124 35.0548C82.5365 33.6411 81.8473 31.5037 81.8473 28.6415C81.8473 25.7016 82.5377 23.5364 83.9124 22.1425C85.2896 20.7485 87.0502 20.0515 89.1955 20.0515C91.3001 20.0515 93.0422 20.7566 94.4181 22.1703C95.794 23.5828 96.482 25.7585 96.482 28.6972C96.482 31.5223 95.794 33.6411 94.4181 35.0548ZM90.781 13.8551C86.6039 13.8551 83.4094 15.3268 81.2012 17.7344V14.4547H73.4548V53.8887H81.846V40.1054C84.016 42.1256 86.9922 43.3364 90.781 43.3364C99.6346 43.3364 105.195 36.7375 105.195 28.5963C105.195 20.4551 99.6346 13.8551 90.781 13.8551ZM130.126 14.4547L122.836 33.5124L115.339 14.4558H106.212L118.512 43.0592C117.01 45.4018 114.862 46.0826 112.035 46.0826H108.645V53.2995H112.964C118.988 53.2995 124.348 50.1625 127.137 43.2355L138.645 14.4558H130.126V14.4547ZM45.9989 25.4071C46.1716 22.6504 49.0073 19.6061 53.2115 19.6061C57.4158 19.6061 60.0283 22.6504 60.2022 25.4071H45.9977H45.9989ZM68.4405 28.5116C68.4405 20.3147 63.7826 13.6498 53.2904 13.6498C42.7983 13.6498 37.17 20.3147 37.17 28.5116C37.17 37.1411 43.4542 43.7028 55.3704 43.7028C61.498 43.7028 65.6702 41.4808 65.6702 41.4808V35.4503C65.6702 35.4503 62.3709 37.3 56.7155 37.3C50.4202 37.3 46.4859 34.6211 46.0088 31.0584H68.3123C68.3937 30.3602 68.4405 29.2376 68.4405 28.5116Z" fill="#422496"/>
</svg>
