<svg width="26" height="26" viewBox="0 0 26 26" fill="none" xmlns="http://www.w3.org/2000/svg">
<path d="M22.9141 3.12598H3.08598C1.38438 3.12598 0 4.45545 0 6.08955V19.91C0 21.5441 1.38438 22.8736 3.08598 22.8736H22.9141C24.6157 22.8736 26 21.5441 26 19.91V6.08955C26 4.45545 24.6157 3.12598 22.9141 3.12598ZM22.9141 20.2572H3.08598C2.83585 20.2572 2.61649 20.095 2.61649 19.91V7.91708L11.5842 15.4881C11.7681 15.6434 12.0019 15.7288 12.2426 15.7288L13.7571 15.7289C13.9977 15.7289 14.2317 15.6434 14.4156 15.4881L23.3837 7.91681V19.9102C23.3836 20.095 23.1641 20.2572 22.9141 20.2572ZM13 13.131L4.2778 5.74233H21.7223L13 13.131Z" fill="white"/>
</svg>
