<svg width="14" height="12" viewBox="0 0 14 12" fill="none" xmlns="http://www.w3.org/2000/svg">
<path d="M14 1.65994C13.4847 1.88827 12.9318 2.04311 12.3509 2.11224C12.9441 1.75705 13.3981 1.19366 13.6133 0.524408C13.0569 0.85334 12.4428 1.09219 11.7884 1.22166C11.2643 0.662646 10.519 0.314453 9.69225 0.314453C8.10618 0.314453 6.82017 1.60046 6.82017 3.18567C6.82017 3.41049 6.84554 3.63008 6.89454 3.84006C4.508 3.72019 2.39178 2.57678 0.975425 0.839339C0.72784 1.26277 0.586993 1.75616 0.586993 2.28283C0.586993 3.27928 1.0944 4.15849 1.86426 4.67287C1.39359 4.65714 0.950925 4.52766 0.563386 4.31244V4.34831C0.563386 5.7393 1.5537 6.9002 2.86682 7.16442C2.62624 7.22916 2.37254 7.26503 2.11009 7.26503C1.92463 7.26503 1.74529 7.24666 1.56944 7.21166C1.93511 8.35332 2.99543 9.18353 4.2517 9.2063C3.26925 9.97616 2.03048 10.4337 0.684993 10.4337C0.45317 10.4337 0.224824 10.4197 0 10.3943C1.27114 11.2106 2.78023 11.6865 4.40218 11.6865C9.6853 11.6865 12.5731 7.31053 12.5731 3.51549L12.5635 3.14369C13.1278 2.74124 13.6159 2.23559 14 1.65994Z" fill="white"/>
</svg>
