<svg width="114" height="48" viewBox="0 0 114 48" fill="none" xmlns="http://www.w3.org/2000/svg">
<rect x="1.5" y="1.5" width="111" height="45" stroke="#292A6B" stroke-width="3"/>
<path d="M30.3613 24.457C30.3613 26.3984 30.0013 28.1165 29.2812 29.6113C28.5612 31.1061 27.5358 32.2591 26.2051 33.0703C24.8835 33.8724 23.375 34.2734 21.6797 34.2734C19.9844 34.2734 18.4805 33.8861 17.168 33.1113C15.8555 32.3275 14.8301 31.2109 14.0918 29.7617C13.3626 28.3125 12.9798 26.6491 12.9434 24.7715V23.6504C12.9434 21.6999 13.2988 19.9818 14.0098 18.4961C14.7298 17.0013 15.7552 15.8483 17.0859 15.0371C18.4258 14.2259 19.9479 13.8203 21.6523 13.8203C23.3385 13.8203 24.8424 14.2214 26.1641 15.0234C27.4857 15.8255 28.5111 16.9694 29.2402 18.4551C29.9785 19.9316 30.3522 21.627 30.3613 23.541V24.457ZM25.4805 23.623C25.4805 21.6452 25.1478 20.1458 24.4824 19.125C23.8262 18.0951 22.8828 17.5801 21.6523 17.5801C19.2461 17.5801 17.9746 19.3848 17.8379 22.9941L17.8242 24.457C17.8242 26.4076 18.1478 27.9069 18.7949 28.9551C19.4421 30.0033 20.4036 30.5273 21.6797 30.5273C22.8919 30.5273 23.8262 30.0124 24.4824 28.9824C25.1387 27.9525 25.4714 26.4714 25.4805 24.5391V23.623ZM39.1387 14.0938L43.582 27.9434L48.0117 14.0938H54.3281V34H49.5156V29.3516L49.9805 19.8359L45.168 34H41.9961L37.1699 19.8223L37.6348 29.3516V34H32.8359V14.0938H39.1387ZM73.6875 31.5391C72.9492 32.3594 71.8691 33.0202 70.4473 33.5215C69.0254 34.0228 67.4668 34.2734 65.7715 34.2734C63.1647 34.2734 61.082 33.4759 59.5234 31.8809C57.9648 30.2858 57.1309 28.0664 57.0215 25.2227L57.0078 23.5C57.0078 21.5404 57.3542 19.8314 58.0469 18.373C58.7396 16.9056 59.7285 15.7799 61.0137 14.9961C62.3079 14.2031 63.8027 13.8066 65.498 13.8066C67.9772 13.8066 69.9004 14.3763 71.2676 15.5156C72.6439 16.6458 73.446 18.3366 73.6738 20.5879H69.0527C68.8887 19.4759 68.5332 18.6829 67.9863 18.209C67.4395 17.735 66.6647 17.498 65.6621 17.498C64.459 17.498 63.5293 18.0085 62.873 19.0293C62.2168 20.0501 61.8841 21.5085 61.875 23.4043V24.6074C61.875 26.5944 62.2122 28.0892 62.8867 29.0918C63.5703 30.0853 64.6413 30.582 66.0996 30.582C67.3483 30.582 68.278 30.304 68.8887 29.748V26.6582H65.5527V23.3633H73.6875V31.5391Z" fill="#292A6B"/>
<path d="M81.2998 14.0752L81.3364 14.9541C81.9175 14.2705 82.7012 13.9287 83.6875 13.9287C84.7959 13.9287 85.5503 14.3535 85.9507 15.2031C86.2144 14.8223 86.5562 14.5146 86.9761 14.2803C87.4009 14.0459 87.9014 13.9287 88.4775 13.9287C90.2158 13.9287 91.0996 14.8491 91.1289 16.6899V22H89.7739V16.7705C89.7739 16.2041 89.6445 15.7817 89.3857 15.5034C89.127 15.2202 88.6924 15.0786 88.082 15.0786C87.5791 15.0786 87.1616 15.23 86.8296 15.5327C86.4976 15.8306 86.3047 16.2334 86.251 16.7412V22H84.8887V16.8071C84.8887 15.6548 84.3247 15.0786 83.1968 15.0786C82.3081 15.0786 81.7002 15.457 81.373 16.2139V22H80.0181V14.0752H81.2998ZM96.4683 22.1465C95.394 22.1465 94.52 21.7949 93.8462 21.0918C93.1724 20.3838 92.8354 19.439 92.8354 18.2573V18.0083C92.8354 17.2222 92.9844 16.5215 93.2822 15.9062C93.585 15.2861 94.0049 14.8027 94.542 14.4561C95.084 14.1045 95.6699 13.9287 96.2998 13.9287C97.3301 13.9287 98.1309 14.2681 98.7021 14.9468C99.2734 15.6255 99.5591 16.5972 99.5591 17.8618V18.4258H94.1904C94.21 19.207 94.437 19.8394 94.8716 20.3228C95.311 20.8013 95.8677 21.0405 96.5415 21.0405C97.02 21.0405 97.4253 20.9429 97.7573 20.7476C98.0894 20.5522 98.3799 20.2935 98.6289 19.9712L99.4565 20.6157C98.7925 21.6362 97.7964 22.1465 96.4683 22.1465ZM96.2998 15.042C95.7529 15.042 95.2939 15.2422 94.9229 15.6426C94.5518 16.0381 94.3223 16.5947 94.2344 17.3125H98.2041V17.21C98.165 16.5215 97.9795 15.9893 97.6475 15.6133C97.3154 15.2324 96.8662 15.042 96.2998 15.042ZM79.6958 29.9717C79.6958 28.7559 79.9839 27.7793 80.5601 27.042C81.1362 26.2998 81.8906 25.9287 82.8232 25.9287C83.751 25.9287 84.4858 26.2461 85.0278 26.8809V22.75H86.3828V34H85.1377L85.0718 33.1504C84.5298 33.8145 83.7754 34.1465 82.8086 34.1465C81.8906 34.1465 81.1411 33.7705 80.5601 33.0186C79.9839 32.2666 79.6958 31.2852 79.6958 30.0742V29.9717ZM81.0508 30.1255C81.0508 31.0239 81.2363 31.7271 81.6074 32.2349C81.9785 32.7427 82.4912 32.9966 83.1455 32.9966C84.0049 32.9966 84.6323 32.6108 85.0278 31.8394V28.1992C84.6226 27.4521 84 27.0786 83.1602 27.0786C82.4961 27.0786 81.9785 27.335 81.6074 27.8477C81.2363 28.3604 81.0508 29.1196 81.0508 30.1255ZM91.6144 34H90.2594V26.0752H91.6144V34ZM90.1495 23.9731C90.1495 23.7534 90.2154 23.5679 90.3473 23.4165C90.484 23.2651 90.6842 23.1895 90.9479 23.1895C91.2115 23.1895 91.4117 23.2651 91.5484 23.4165C91.6852 23.5679 91.7535 23.7534 91.7535 23.9731C91.7535 24.1929 91.6852 24.376 91.5484 24.5225C91.4117 24.6689 91.2115 24.7422 90.9479 24.7422C90.6842 24.7422 90.484 24.6689 90.3473 24.5225C90.2154 24.376 90.1495 24.1929 90.1495 23.9731ZM98.6822 34C98.6041 33.8438 98.5406 33.5654 98.4918 33.165C97.8619 33.8193 97.11 34.1465 96.2359 34.1465C95.4547 34.1465 94.8126 33.9268 94.3097 33.4873C93.8116 33.043 93.5626 32.4814 93.5626 31.8027C93.5626 30.9775 93.8751 30.3379 94.5001 29.8838C95.13 29.4248 96.0138 29.1953 97.1515 29.1953H98.4698V28.5728C98.4698 28.0991 98.3282 27.7231 98.045 27.4448C97.7618 27.1616 97.3443 27.02 96.7926 27.02C96.3092 27.02 95.9039 27.1421 95.5768 27.3862C95.2496 27.6304 95.086 27.9258 95.086 28.2725H93.7237C93.7237 27.877 93.8629 27.4961 94.1412 27.1299C94.4244 26.7588 94.8053 26.4658 95.2838 26.251C95.7672 26.0361 96.297 25.9287 96.8731 25.9287C97.7862 25.9287 98.5016 26.1582 99.0191 26.6172C99.5367 27.0713 99.8053 27.6987 99.8248 28.4995V32.147C99.8248 32.8745 99.9176 33.4531 100.103 33.8828V34H98.6822ZM96.4337 32.9673C96.8585 32.9673 97.2613 32.8574 97.6422 32.6377C98.023 32.418 98.2989 32.1323 98.4698 31.7808V30.1548H97.4078C95.7477 30.1548 94.9176 30.6406 94.9176 31.6123C94.9176 32.0371 95.0592 32.3691 95.3424 32.6084C95.6256 32.8477 95.9894 32.9673 96.4337 32.9673Z" fill="#292A6B"/>
</svg>
