<svg width="17" height="24" viewBox="0 0 17 24" fill="none" xmlns="http://www.w3.org/2000/svg">
<path fill-rule="evenodd" clip-rule="evenodd" d="M14.9294 12.1283C16.3864 9.60469 16.3122 6.61723 14.995 4.24172L14.9295 4.12829C14.5868 3.53467 14.1795 3.00159 13.7216 2.5328C13.2233 2.02392 12.6482 1.57363 12.0012 1.20008C11.7585 1.05997 11.5115 0.934021 11.2612 0.821973C10.2381 0.366473 9.12601 0.127993 8.00126 0.126953C6.87651 0.127993 5.76446 0.366468 4.74131 0.82196C4.491 0.934011 4.24402 1.05997 4.00134 1.20008C3.3543 1.57365 2.77918 2.02396 2.28086 2.53287C1.82298 3.00164 1.41569 3.53469 1.07298 4.12829L1.00749 4.24171C-0.309663 6.61722 -0.383871 9.60468 1.07313 12.1283L8 24.0004L14.9294 12.1283ZM8.00005 11.2008C9.76736 11.2008 11.2 9.76809 11.2 8.00078C11.2 6.23347 9.76736 4.80078 8.00005 4.80078C6.23274 4.80078 4.80005 6.23347 4.80005 8.00078C4.80005 9.76809 6.23274 11.2008 8.00005 11.2008Z" fill="#53A1EA"/>
</svg>
